<?xml version="1.0" encoding="UTF-8"?>
<!DOCTYPE svg PUBLIC "-//W3C//DTD SVG 1.1//EN" "http://www.w3.org/Graphics/SVG/1.1/DTD/svg11.dtd">
<svg xmlns="http://www.w3.org/2000/svg" version="1.1" width="192px" height="256px" style="shape-rendering:geometricPrecision; text-rendering:geometricPrecision; image-rendering:optimizeQuality; fill-rule:evenodd; clip-rule:evenodd" xmlns:xlink="http://www.w3.org/1999/xlink">
<g><path style="opacity:1" fill="#d8855d" d="M 136.5,70.5 C 132.549,63.2157 126.882,57.549 119.5,53.5C 111.486,62.3472 103.652,71.3472 96,80.5C 74.7811,76.0646 55.2811,80.0646 37.5,92.5C 36.1667,91.5 34.8333,90.5 33.5,89.5C 34.6302,88.3777 35.2969,87.0443 35.5,85.5C 52.5024,69.6242 72.3358,64.6242 95,70.5C 102.571,59.7017 109.904,48.7017 117,37.5C 128.638,45.4391 135.138,56.4391 136.5,70.5 Z"/></g>
<g><path style="opacity:1" fill="#bd7857" d="M 136.5,70.5 C 137.007,82.7986 134.507,94.4652 129,105.5C 128.502,108.482 128.335,111.482 128.5,114.5C 128.5,117.167 128.5,119.833 128.5,122.5C 128.666,126.514 128.499,130.514 128,134.5C 126.556,136.155 124.722,136.822 122.5,136.5C 121.542,136.047 120.708,135.381 120,134.5C 119.272,122.84 118.772,111.174 118.5,99.5C 114.154,99.3343 109.821,99.501 105.5,100C 88.1136,110.234 69.4469,113.401 49.5,109.5C 51.7752,120.101 54.4419,130.601 57.5,141C 57.4779,143.183 56.4779,144.683 54.5,145.5C 52.2075,145.756 50.0408,145.423 48,144.5C 47.2748,139.923 46.1081,135.59 44.5,131.5C 44.7406,129.102 44.0739,127.102 42.5,125.5C 41.8091,120.402 40.6425,115.402 39,110.5C 35.7019,106.2 32.0352,102.2 28,98.5C 27.3623,97.3914 26.8623,96.2247 26.5,95C 28.9885,91.345 31.9885,88.1783 35.5,85.5C 35.2969,87.0443 34.6302,88.3777 33.5,89.5C 34.8333,90.5 36.1667,91.5 37.5,92.5C 55.2811,80.0646 74.7811,76.0646 96,80.5C 103.652,71.3472 111.486,62.3472 119.5,53.5C 126.882,57.549 132.549,63.2157 136.5,70.5 Z"/></g>
<g><path style="opacity:1" fill="#fcd4af" d="M 122.5,136.5 C 123.209,137.404 124.209,137.737 125.5,137.5C 125.5,138.5 125.5,139.5 125.5,140.5C 132.332,138.845 135.166,134.512 134,127.5C 132.924,124.921 131.091,123.254 128.5,122.5C 128.5,119.833 128.5,117.167 128.5,114.5C 136.878,116.898 141.211,122.565 141.5,131.5C 140.968,136.903 138.635,141.236 134.5,144.5C 133.833,144.5 133.5,144.833 133.5,145.5C 133.5,146.167 133.167,146.5 132.5,146.5C 132.5,145.833 132.167,145.5 131.5,145.5C 129.821,145.892 128.154,146.392 126.5,147C 125.714,149.96 124.548,152.794 123,155.5C 120.686,156.733 118.519,158.067 116.5,159.5C 111.703,159.523 107.036,160.189 102.5,161.5C 93.9428,161.779 85.6094,162.779 77.5,164.5C 71.7232,164.597 66.0566,165.264 60.5,166.5C 58.2188,166.923 56.5521,166.256 55.5,164.5C 55.6716,163.508 55.3382,162.842 54.5,162.5C 54.1249,160.302 53.4582,158.302 52.5,156.5C 50.2646,156.795 48.2646,156.461 46.5,155.5C 53.0081,156.109 54.6748,153.775 51.5,148.5C 52.0998,147.1 53.0998,146.1 54.5,145.5C 56.4779,144.683 57.4779,143.183 57.5,141C 54.4419,130.601 51.7752,120.101 49.5,109.5C 69.4469,113.401 88.1136,110.234 105.5,100C 109.821,99.501 114.154,99.3343 118.5,99.5C 118.772,111.174 119.272,122.84 120,134.5C 120.708,135.381 121.542,136.047 122.5,136.5 Z"/></g>
<g><path style="opacity:1" fill="#c27d5c" d="M 109.5,110.5 C 110.833,110.5 112.167,110.5 113.5,110.5C 113.674,112.861 114.007,115.194 114.5,117.5C 108.545,118.78 102.712,120.447 97,122.5C 95.5594,119.953 95.0594,117.453 95.5,115C 100.401,113.802 105.068,112.302 109.5,110.5 Z"/></g>
<g><path style="opacity:1" fill="#c07a59" d="M 75.5,126.5 C 73.2362,125.781 70.9029,125.448 68.5,125.5C 65.9039,124.735 63.2372,124.401 60.5,124.5C 60.9926,122.194 61.3259,119.861 61.5,117.5C 67.4899,118.24 73.4899,118.906 79.5,119.5C 79.5,121.833 79.5,124.167 79.5,126.5C 78.1667,126.5 76.8333,126.5 75.5,126.5 Z"/></g>
<g><path style="opacity:1" fill="#fefbf8" d="M 101.5,137.5 C 105.568,137.069 107.568,134.736 107.5,130.5C 107.146,125.42 104.479,123.087 99.5,123.5C 104.593,120.269 108.759,121.269 112,126.5C 113.471,135.526 109.971,139.193 101.5,137.5 Z"/></g>
<g><path style="opacity:1" fill="#c27f5f" d="M 99.5,123.5 C 104.479,123.087 107.146,125.42 107.5,130.5C 107.568,134.736 105.568,137.069 101.5,137.5C 98.22,134.595 96.8867,130.929 97.5,126.5C 98.4013,125.71 99.0679,124.71 99.5,123.5 Z"/></g>
<g><path style="opacity:0.999" fill="#fbd4af" d="M 187.5,135.5 C 184.713,139.788 181.38,143.621 177.5,147C 171.915,148.186 166.249,148.852 160.5,149C 155.501,150.533 151.167,153.033 147.5,156.5C 142.848,153.179 138.515,149.513 134.5,145.5C 134.5,145.167 134.5,144.833 134.5,144.5C 137.09,143.872 139.423,142.705 141.5,141C 149.291,132.531 158.624,126.531 169.5,123C 178.888,122.213 184.888,126.379 187.5,135.5 Z"/></g>
<g><path style="opacity:1" fill="#e4b287" d="M 128.5,122.5 C 131.091,123.254 132.924,124.921 134,127.5C 135.166,134.512 132.332,138.845 125.5,140.5C 125.5,139.5 125.5,138.5 125.5,137.5C 124.209,137.737 123.209,137.404 122.5,136.5C 124.722,136.822 126.556,136.155 128,134.5C 128.499,130.514 128.666,126.514 128.5,122.5 Z"/></g>
<g><path style="opacity:1" fill="#fcf6f2" d="M 68.5,125.5 C 70.9029,125.448 73.2362,125.781 75.5,126.5C 79.0916,131.017 79.4249,135.85 76.5,141C 66.4533,144.564 61.9533,141.064 63,130.5C 64.4055,128.256 66.2389,126.59 68.5,125.5 Z"/></g>
<g><path style="opacity:1" fill="#c17d5d" d="M 69.5,127.5 C 76.0627,127.589 78.5627,130.922 77,137.5C 74.8225,141.065 72.1558,141.399 69,138.5C 66.8684,134.686 67.035,131.019 69.5,127.5 Z"/></g>
<g><path style="opacity:1" fill="#f8ece4" d="M 97.5,126.5 C 96.8867,130.929 98.22,134.595 101.5,137.5C 99.2475,137.084 97.7475,135.751 97,133.5C 96.2042,130.961 96.3709,128.628 97.5,126.5 Z"/></g>
<g><path style="opacity:1" fill="#e7b688" d="M 85.5,133.5 C 89.287,132.814 92.4537,133.814 95,136.5C 95.6302,138.903 94.7969,140.737 92.5,142C 82.9101,144.202 80.5767,141.369 85.5,133.5 Z"/></g>
<g><path style="opacity:1" fill="#dbab80" d="M 44.5,131.5 C 46.1081,135.59 47.2748,139.923 48,144.5C 50.0408,145.423 52.2075,145.756 54.5,145.5C 53.0998,146.1 52.0998,147.1 51.5,148.5C 45.0543,149.237 41.721,146.07 41.5,139C 42.6257,136.577 43.6257,134.077 44.5,131.5 Z"/></g>
<g><path style="opacity:1" fill="#e4c09f" d="M 42.5,125.5 C 44.0739,127.102 44.7406,129.102 44.5,131.5C 43.6257,134.077 42.6257,136.577 41.5,139C 41.721,146.07 45.0543,149.237 51.5,148.5C 54.6748,153.775 53.0081,156.109 46.5,155.5C 38.8077,153.316 34.8077,148.149 34.5,140C 34.9749,133.878 37.6415,129.044 42.5,125.5 Z"/></g>
<g><path style="opacity:1" fill="#dfbc9b" d="M 187.5,135.5 C 189.256,137.249 190.589,139.249 191.5,141.5C 191.5,142.167 191.5,142.833 191.5,143.5C 189.02,145.692 186.52,148.025 184,150.5C 183.768,153.738 182.268,156.238 179.5,158C 173.168,158.941 167.001,158.441 161,156.5C 158.914,159.094 156.414,161.094 153.5,162.5C 151.5,160.5 149.5,158.5 147.5,156.5C 151.167,153.033 155.501,150.533 160.5,149C 166.249,148.852 171.915,148.186 177.5,147C 181.38,143.621 184.713,139.788 187.5,135.5 Z"/></g>
<g><path style="opacity:1" fill="#c17c5b" d="M 77.5,149.5 C 82.4843,150.275 87.4843,150.942 92.5,151.5C 92.5,152.833 92.5,154.167 92.5,155.5C 87.5157,154.725 82.5157,154.058 77.5,153.5C 77.5,152.167 77.5,150.833 77.5,149.5 Z"/></g>
<g><path style="opacity:1" fill="#31a465" d="M 131.5,145.5 C 131.5,145.833 131.5,146.167 131.5,146.5C 134.324,154.316 137.324,161.983 140.5,169.5C 141.234,170.708 141.567,172.041 141.5,173.5C 138.5,174.167 135.5,174.833 132.5,175.5C 132.5,174.5 132.5,173.5 132.5,172.5C 129.406,172.597 126.74,173.597 124.5,175.5C 122.298,170.886 120.298,166.22 118.5,161.5C 117.833,160.833 117.167,160.167 116.5,159.5C 118.519,158.067 120.686,156.733 123,155.5C 124.548,152.794 125.714,149.96 126.5,147C 128.154,146.392 129.821,145.892 131.5,145.5 Z"/></g>
<g><path style="opacity:0.012" fill="#1a1b1a" d="M 52.5,156.5 C 53.4582,158.302 54.1249,160.302 54.5,162.5C 53.5,163.167 52.5,163.833 51.5,164.5C 51.3893,163.883 51.056,163.383 50.5,163C 51.3972,160.913 52.0639,158.746 52.5,156.5 Z"/></g>
<g><path style="opacity:1" fill="#e9e9e7" d="M 133.5,145.5 C 133.833,145.5 134.167,145.5 134.5,145.5C 138.515,149.513 142.848,153.179 147.5,156.5C 149.5,158.5 151.5,160.5 153.5,162.5C 149.653,165.593 145.32,167.926 140.5,169.5C 137.324,161.983 134.324,154.316 131.5,146.5C 131.833,146.5 132.167,146.5 132.5,146.5C 133.167,146.5 133.5,146.167 133.5,145.5 Z"/></g>
<g><path style="opacity:1" fill="#278e54" d="M 116.5,159.5 C 117.167,160.167 117.833,160.833 118.5,161.5C 114.587,162.45 111.92,164.783 110.5,168.5C 109.883,168.389 109.383,168.056 109,167.5C 104.667,170.833 100.333,174.167 96,177.5C 94.6924,175.359 93.1924,173.359 91.5,171.5C 89.9098,173.68 88.5765,176.013 87.5,178.5C 82.6093,176.593 77.7759,174.593 73,172.5C 72.6174,173.056 72.1174,173.389 71.5,173.5C 68.825,170.829 65.4916,169.162 61.5,168.5C 61.1667,167.833 60.8333,167.167 60.5,166.5C 66.0566,165.264 71.7232,164.597 77.5,164.5C 81.6899,166.962 86.1899,168.962 91,170.5C 95.1568,167.847 98.9901,164.847 102.5,161.5C 107.036,160.189 111.703,159.523 116.5,159.5 Z"/></g>
<g><path style="opacity:1" fill="#b99977" d="M 102.5,161.5 C 98.9901,164.847 95.1568,167.847 91,170.5C 86.1899,168.962 81.6899,166.962 77.5,164.5C 85.6094,162.779 93.9428,161.779 102.5,161.5 Z"/></g>
<g><path style="opacity:1" fill="#3dbb79" d="M 55.5,164.5 C 56.5521,166.256 58.2188,166.923 60.5,166.5C 60.8333,167.167 61.1667,167.833 61.5,168.5C 61.486,174.581 60.8193,180.581 59.5,186.5C 54.3287,182.166 48.9954,178 43.5,174C 47.7818,171.046 51.7818,167.879 55.5,164.5 Z"/></g>
<g><path style="opacity:1" fill="#b07253" d="M 118.5,161.5 C 120.298,166.22 122.298,170.886 124.5,175.5C 126.093,178.356 127.427,181.356 128.5,184.5C 127.312,186.262 125.645,187.262 123.5,187.5C 121.761,188.434 120.095,188.434 118.5,187.5C 117.427,184.356 116.093,181.356 114.5,178.5C 113.164,175.162 111.831,171.829 110.5,168.5C 111.92,164.783 114.587,162.45 118.5,161.5 Z"/></g>
<g><path style="opacity:1" fill="#b37454" d="M 61.5,168.5 C 65.4916,169.162 68.825,170.829 71.5,173.5C 70.7564,177.119 70.423,180.785 70.5,184.5C 69.7485,187.747 69.2485,191.081 69,194.5C 66.6062,195.136 64.1062,195.136 61.5,194.5C 60.8333,194.5 60.1667,194.5 59.5,194.5C 59.5,191.833 59.5,189.167 59.5,186.5C 60.8193,180.581 61.486,174.581 61.5,168.5 Z"/></g>
<g><path style="opacity:1" fill="#30a665" d="M 54.5,162.5 C 55.3382,162.842 55.6716,163.508 55.5,164.5C 51.7818,167.879 47.7818,171.046 43.5,174C 48.9954,178 54.3287,182.166 59.5,186.5C 59.5,189.167 59.5,191.833 59.5,194.5C 58.8946,196.481 57.8946,196.815 56.5,195.5C 50.2376,189.697 43.571,184.364 36.5,179.5C 35.5222,179.189 34.8555,178.522 34.5,177.5C 35.8509,174.804 37.6843,172.47 40,170.5C 40.6667,171.167 41.3333,171.833 42,172.5C 45.3325,169.998 48.4992,167.332 51.5,164.5C 52.5,163.833 53.5,163.167 54.5,162.5 Z"/></g>
<g><path style="opacity:0.247" fill="#e3c3a6" d="M -0.5,175.5 C 0.833333,176.833 0.833333,178.167 -0.5,179.5C -0.5,178.167 -0.5,176.833 -0.5,175.5 Z"/></g>
<g><path style="opacity:1" fill="#3fbc79" d="M 114.5,178.5 C 116.093,181.356 117.427,184.356 118.5,187.5C 120.095,188.434 121.761,188.434 123.5,187.5C 123.5,188.833 123.5,190.167 123.5,191.5C 103.462,194.005 83.4617,196.671 63.5,199.5C 62.4625,198.07 61.7959,196.403 61.5,194.5C 64.1062,195.136 66.6062,195.136 69,194.5C 69.2485,191.081 69.7485,187.747 70.5,184.5C 73.999,185.1 77.499,185.766 81,186.5C 85,186.5 89,186.5 93,186.5C 94.7106,186.561 96.044,185.894 97,184.5C 98.7562,185.548 100.59,185.548 102.5,184.5C 105.977,181.556 109.977,179.556 114.5,178.5 Z"/></g>
<g><path style="opacity:1" fill="#f8f7f5" d="M 36.5,179.5 C 43.571,184.364 50.2376,189.697 56.5,195.5C 55.8333,195.5 55.5,195.833 55.5,196.5C 46.8352,195.5 38.1686,194.5 29.5,193.5C 31.3084,188.55 33.6417,183.883 36.5,179.5 Z"/></g>
<g><path style="opacity:1" fill="#39b373" d="M 110.5,168.5 C 111.831,171.829 113.164,175.162 114.5,178.5C 109.977,179.556 105.977,181.556 102.5,184.5C 100.59,185.548 98.7562,185.548 97,184.5C 96.044,185.894 94.7106,186.561 93,186.5C 89,186.5 85,186.5 81,186.5C 77.499,185.766 73.999,185.1 70.5,184.5C 70.423,180.785 70.7564,177.119 71.5,173.5C 72.1174,173.389 72.6174,173.056 73,172.5C 77.7759,174.593 82.6093,176.593 87.5,178.5C 88.5765,176.013 89.9098,173.68 91.5,171.5C 93.1924,173.359 94.6924,175.359 96,177.5C 100.333,174.167 104.667,170.833 109,167.5C 109.383,168.056 109.883,168.389 110.5,168.5 Z"/></g>
<g><path style="opacity:1" fill="#bb7957" d="M 123.5,191.5 C 123.547,194.969 124.213,198.302 125.5,201.5C 124.833,201.5 124.167,201.5 123.5,201.5C 118.153,202.073 112.82,202.74 107.5,203.5C 103.167,204.167 98.8333,204.833 94.5,205.5C 84.4264,206.342 74.4264,207.676 64.5,209.5C 63.7929,206.214 63.4595,202.881 63.5,199.5C 83.4617,196.671 103.462,194.005 123.5,191.5 Z"/></g>
<g><path style="opacity:1" fill="#fbd4ae" d="M 29.5,193.5 C 38.1686,194.5 46.8352,195.5 55.5,196.5C 52.3584,200.068 51.0251,204.068 51.5,208.5C 51.5,209.833 51.5,211.167 51.5,212.5C 49.2064,225.082 42.5397,228.915 31.5,224C 23.7357,216.914 22.4024,208.747 27.5,199.5C 27.595,197.214 28.2616,195.214 29.5,193.5 Z"/></g>
<g><path style="opacity:1" fill="#eb9f5f" d="M 123.5,201.5 C 126.175,206.021 128.175,210.854 129.5,216C 123.509,216.499 117.509,216.666 111.5,216.5C 112.163,211.493 110.83,207.16 107.5,203.5C 112.82,202.74 118.153,202.073 123.5,201.5 Z"/></g>
<g><path style="opacity:1" fill="#dc955b" d="M 123.5,201.5 C 124.167,201.5 124.833,201.5 125.5,201.5C 129.25,206.074 131.25,211.407 131.5,217.5C 123.133,217.705 114.8,217.371 106.5,216.5C 105.849,215.909 105.182,215.243 104.5,214.5C 100.869,215.352 97.2024,216.019 93.5,216.5C 93.6773,220.234 93.3439,223.901 92.5,227.5C 91.5,227.5 90.5,227.5 89.5,227.5C 89.3341,222.489 89.5007,217.489 90,212.5C 91.0121,209.798 92.5121,207.465 94.5,205.5C 98.8333,204.833 103.167,204.167 107.5,203.5C 110.83,207.16 112.163,211.493 111.5,216.5C 117.509,216.666 123.509,216.499 129.5,216C 128.175,210.854 126.175,206.021 123.5,201.5 Z"/></g>
<g><path style="opacity:1" fill="#e69c5d" d="M 94.5,205.5 C 92.5121,207.465 91.0121,209.798 90,212.5C 89.5007,217.489 89.3341,222.489 89.5,227.5C 83.4632,227.171 77.4632,227.504 71.5,228.5C 70.5934,231.421 70.2601,234.421 70.5,237.5C 69.8333,237.5 69.1667,237.5 68.5,237.5C 68.934,227.871 67.6006,218.538 64.5,209.5C 74.4264,207.676 84.4264,206.342 94.5,205.5 Z"/></g>
<g><path style="opacity:1" fill="#ecc7a5" d="M 27.5,199.5 C 22.4024,208.747 23.7357,216.914 31.5,224C 42.5397,228.915 49.2064,225.082 51.5,212.5C 53.8038,225.694 48.1371,231.194 34.5,229C 31.8987,228.08 29.2321,227.413 26.5,227C 25.4911,224.828 23.8244,223.662 21.5,223.5C 20.9356,215.71 22.1023,208.043 25,200.5C 25.6708,199.748 26.5041,199.414 27.5,199.5 Z"/></g>
<g><path style="opacity:1" fill="#d38949" d="M 106.5,216.5 C 114.8,217.371 123.133,217.705 131.5,217.5C 131.5,221.5 131.5,225.5 131.5,229.5C 123.726,228.306 116.059,226.64 108.5,224.5C 108.167,224.5 107.833,224.5 107.5,224.5C 107.425,221.794 107.092,219.127 106.5,216.5 Z"/></g>
<g><path style="opacity:1" fill="#d38948" d="M 89.5,227.5 C 90.5,227.5 91.5,227.5 92.5,227.5C 92.5,229.167 92.5,230.833 92.5,232.5C 92.5,234.167 92.5,235.833 92.5,237.5C 85.1667,237.5 77.8333,237.5 70.5,237.5C 70.2601,234.421 70.5934,231.421 71.5,228.5C 77.4632,227.504 83.4632,227.171 89.5,227.5 Z"/></g>
<g><path style="opacity:1" fill="#d8b697" d="M 51.5,208.5 C 56.3857,213.316 57.8857,218.983 56,225.5C 52.0247,228.732 49.5247,232.898 48.5,238C 40.4494,238.803 32.7827,237.469 25.5,234C 22.6269,231.087 21.2935,227.587 21.5,223.5C 23.8244,223.662 25.4911,224.828 26.5,227C 29.2321,227.413 31.8987,228.08 34.5,229C 48.1371,231.194 53.8038,225.694 51.5,212.5C 51.5,211.167 51.5,209.833 51.5,208.5 Z"/></g>
<g><path style="opacity:1" fill="#b37152" d="M 108.5,224.5 C 116.059,226.64 123.726,228.306 131.5,229.5C 133.5,233.5 135.5,237.5 137.5,241.5C 136.542,241.953 135.708,242.619 135,243.5C 134.173,240.584 132.506,239.917 130,241.5C 121.719,239.721 113.552,237.555 105.5,235C 107.69,231.625 108.69,228.125 108.5,224.5 Z"/></g>
<g><path style="opacity:1" fill="#a56d52" d="M 107.5,224.5 C 107.833,224.5 108.167,224.5 108.5,224.5C 108.69,228.125 107.69,231.625 105.5,235C 113.552,237.555 121.719,239.721 130,241.5C 132.506,239.917 134.173,240.584 135,243.5C 135.708,242.619 136.542,241.953 137.5,241.5C 139.153,244.916 138.653,247.916 136,250.5C 125.145,247.745 114.312,244.911 103.5,242C 103.433,235.991 104.767,230.158 107.5,224.5 Z"/></g>
<g><path style="opacity:1" fill="#b17152" d="M 92.5,232.5 C 93.4731,234.948 93.8064,237.615 93.5,240.5C 92.2749,241.152 91.6083,242.319 91.5,244C 92.0093,245.777 92.0093,247.277 91.5,248.5C 81.612,248.461 71.7786,248.461 62,248.5C 61.4926,247.004 61.9926,245.837 63.5,245C 63.2716,244.601 62.9382,244.435 62.5,244.5C 64.2733,241.94 66.2733,239.607 68.5,237.5C 69.1667,237.5 69.8333,237.5 70.5,237.5C 77.8333,237.5 85.1667,237.5 92.5,237.5C 92.5,235.833 92.5,234.167 92.5,232.5 Z"/></g>
<g><path style="opacity:1" fill="#a36c51" d="M 93.5,240.5 C 93.5,245.5 93.5,250.5 93.5,255.5C 81.5,255.5 69.5,255.5 57.5,255.5C 56.389,250.475 58.0557,246.808 62.5,244.5C 62.9382,244.435 63.2716,244.601 63.5,245C 61.9926,245.837 61.4926,247.004 62,248.5C 71.7786,248.461 81.612,248.461 91.5,248.5C 92.0093,247.277 92.0093,245.777 91.5,244C 91.6083,242.319 92.2749,241.152 93.5,240.5 Z"/></g>
</svg>
