<?xml version="1.0" encoding="UTF-8"?>
<svg version="1.1" xmlns="http://www.w3.org/2000/svg" width="512" height="512">
<path d="M0 0 C0.99902344 -0.01933594 1.99804688 -0.03867187 3.02734375 -0.05859375 C9.8844455 1.06219379 14.6644313 6.67685146 19.5 11.3125 C20.92427115 12.66297984 22.34875522 14.01323514 23.7734375 15.36328125 C24.48983398 16.04471191 25.20623047 16.72614258 25.94433594 17.42822266 C29.15290346 20.47184998 32.3884005 23.48624553 35.625 26.5 C36.86597207 27.65745919 38.10685746 28.81501132 39.34765625 29.97265625 C39.96012207 30.54387207 40.57258789 31.11508789 41.20361328 31.70361328 C44.32396303 34.61413651 47.44317102 37.52588287 50.5625 40.4375 C51.81249459 41.60417246 53.06249459 42.77083913 54.3125 43.9375 C111.8125 97.60416667 169.3125 151.27083333 226.8125 204.9375 C227.4322168 205.5157251 228.05193359 206.0939502 228.69042969 206.68969727 C229.93137988 207.84827348 231.17162297 209.00760756 232.41113281 210.16772461 C235.66898983 213.21499608 238.94067194 216.24538221 242.234375 219.25390625 C242.91693359 219.88103516 243.59949219 220.50816406 244.30273438 221.15429688 C245.60682305 222.35192933 246.91518307 223.54493362 248.22851562 224.73242188 C248.81826172 225.27576172 249.40800781 225.81910156 250.015625 226.37890625 C250.53286133 226.85013916 251.05009766 227.32137207 251.58300781 227.80688477 C256.71403397 233.46202069 256.50225741 238.48250445 256.48242188 245.81787109 C256.49089142 246.96803207 256.49936096 248.11819305 256.50808716 249.3032074 C256.5314891 253.10589654 256.53247847 256.90818179 256.53125 260.7109375 C256.53834987 263.35503298 256.54604861 265.99912692 256.55432129 268.64321899 C256.56891956 274.18633302 256.56951268 279.72933454 256.56347656 285.27246094 C256.55683861 291.6693246 256.57969262 298.06561123 256.61679029 304.46235788 C256.65124206 310.62776366 256.65781972 316.79289776 256.65370178 322.9583931 C256.65539488 325.57624657 256.66505543 328.19410752 256.68284607 330.81190109 C256.70499684 334.47451184 256.69535113 338.13573357 256.67773438 341.79833984 C256.69762924 343.41791344 256.69762924 343.41791344 256.71792603 345.07020569 C256.64200466 351.86851035 255.6714469 355.36559368 251.0625 360.4375 C246.13421487 363.99044974 240.94185919 364.38696173 235.0625 363.4375 C229.45425626 361.22695137 225.37263026 357.02732649 221.3125 352.6953125 C218.72407231 350.09789721 215.98191729 347.7304151 213.21240234 345.32910156 C209.6835073 342.22418687 206.28429551 338.98498805 202.875 335.75 C197.75398278 330.91007543 192.62350543 326.08278055 187.4375 321.3125 C182.7938222 317.04060688 178.17179858 312.74647268 173.5625 308.4375 C168.90993476 304.08869826 164.2465551 299.75236849 159.5625 295.4375 C154.2360933 290.53090861 148.93906925 285.59355861 143.6484375 280.6484375 C139.63280049 276.89720457 135.60419247 273.16063543 131.5625 269.4375 C126.2360933 264.53090861 120.93906925 259.59355861 115.6484375 254.6484375 C111.63280049 250.89720457 107.60419247 247.16063543 103.5625 243.4375 C98.2360933 238.53090861 92.93906925 233.59355861 87.6484375 228.6484375 C83.63280049 224.89720457 79.60419247 221.16063543 75.5625 217.4375 C70.2360933 212.53090861 64.93906925 207.59355861 59.6484375 202.6484375 C55.63280049 198.89720457 51.60419247 195.16063543 47.5625 191.4375 C42.87844409 187.12263076 38.21516234 182.78619869 33.5625 178.4375 C22.79013208 168.3710648 11.93814477 158.39214422 1.0625 148.4375 C-1.7739094 149.73465018 -3.89677116 151.12556998 -6.15234375 153.2734375 C-7.04759766 154.11841797 -7.04759766 154.11841797 -7.9609375 154.98046875 C-8.59257812 155.58503906 -9.22421875 156.18960938 -9.875 156.8125 C-11.22753267 158.09149692 -12.58040289 159.37013697 -13.93359375 160.6484375 C-14.60890137 161.2887793 -15.28420898 161.92912109 -15.97998047 162.58886719 C-18.77652059 165.2298502 -21.60508406 167.83512127 -24.4375 170.4375 C-29.12216781 174.75169847 -33.78490162 179.08874478 -38.4375 183.4375 C-43.61524651 188.27710796 -48.81070243 193.09655839 -54.0234375 197.8984375 C-58.17721157 201.72801457 -62.31004137 205.57958969 -66.4375 209.4375 C-71.61524651 214.27710796 -76.81070243 219.09655839 -82.0234375 223.8984375 C-86.17721157 227.72801457 -90.31004137 231.57958969 -94.4375 235.4375 C-99.61524651 240.27710796 -104.81070243 245.09655839 -110.0234375 249.8984375 C-114.17721157 253.72801457 -118.31004137 257.57958969 -122.4375 261.4375 C-127.61524651 266.27710796 -132.81070243 271.09655839 -138.0234375 275.8984375 C-142.17721157 279.72801457 -146.31004137 283.57958969 -150.4375 287.4375 C-155.61524651 292.27710796 -160.81070243 297.09655839 -166.0234375 301.8984375 C-170.17721157 305.72801457 -174.31004137 309.57958969 -178.4375 313.4375 C-183.61524651 318.27710796 -188.81070243 323.09655839 -194.0234375 327.8984375 C-198.17721296 331.72801585 -202.30986884 335.57977269 -206.4375 339.4375 C-211.30689477 343.98520056 -216.17704776 348.53204602 -221.0625 353.0625 C-221.84270508 353.78953125 -221.84270508 353.78953125 -222.63867188 354.53125 C-229.1493809 360.55684737 -233.2843597 363.88665954 -242.296875 363.78125 C-246.56493721 363.22564427 -249.89072406 361.46316664 -252.9375 358.4375 C-256.6503629 352.81965169 -256.36881795 347.51469038 -256.34155273 341.01953125 C-256.34841599 339.87737152 -256.35527924 338.73521179 -256.36235046 337.55844116 C-256.3806288 333.78883378 -256.37677964 330.01964212 -256.37109375 326.25 C-256.37565467 323.62735865 -256.38095997 321.00471849 -256.38697815 318.38208008 C-256.39699766 312.88781771 -256.39371771 307.39367312 -256.38354492 301.89941406 C-256.37206013 295.55654508 -256.38614906 289.21409875 -256.4129414 282.87128544 C-256.43779443 276.75767643 -256.44027253 270.64426202 -256.43382454 264.53060913 C-256.43367112 261.93426815 -256.43973262 259.33791912 -256.45211601 256.74160767 C-256.46698769 253.11257434 -256.45637598 249.48447285 -256.43920898 245.85546875 C-256.44887695 244.78307953 -256.45854492 243.71069031 -256.46850586 242.60580444 C-256.39421051 235.10802284 -255.0410262 231.92570697 -250.078125 226.34765625 C-246.11703842 222.47659437 -242.07093344 218.76273225 -237.87109375 215.15234375 C-235.37318444 212.9370262 -233.05725011 210.5685183 -230.71875 208.1875 C-228.21853815 205.73115151 -225.56069484 203.47440632 -222.90625 201.1875 C-221.00726929 199.49951714 -219.21744012 197.74980266 -217.4375 195.9375 C-214.39917583 192.84393357 -211.1898468 190.01644493 -207.90625 187.1875 C-206.00726929 185.49951714 -204.21744012 183.74980266 -202.4375 181.9375 C-199.39917583 178.84393357 -196.1898468 176.01644493 -192.90625 173.1875 C-191.00726929 171.49951714 -189.21744012 169.74980266 -187.4375 167.9375 C-184.39917583 164.84393357 -181.1898468 162.01644493 -177.90625 159.1875 C-176.00726929 157.49951714 -174.21744012 155.74980266 -172.4375 153.9375 C-169.39917583 150.84393357 -166.1898468 148.01644493 -162.90625 145.1875 C-161.00726929 143.49951714 -159.21744012 141.74980266 -157.4375 139.9375 C-154.39917583 136.84393357 -151.1898468 134.01644493 -147.90625 131.1875 C-146.00726929 129.49951714 -144.21744012 127.74980266 -142.4375 125.9375 C-139.39917583 122.84393357 -136.1898468 120.01644493 -132.90625 117.1875 C-131.00726929 115.49951714 -129.21744012 113.74980266 -127.4375 111.9375 C-124.39917583 108.84393357 -121.1898468 106.01644493 -117.90625 103.1875 C-116.00726929 101.49951714 -114.21744012 99.74980266 -112.4375 97.9375 C-109.39917583 94.84393357 -106.1898468 92.01644493 -102.90625 89.1875 C-101.00726929 87.49951714 -99.21744012 85.74980266 -97.4375 83.9375 C-94.39917583 80.84393357 -91.1898468 78.01644493 -87.90625 75.1875 C-86.00726929 73.49951714 -84.21744012 71.74980266 -82.4375 69.9375 C-79.39917583 66.84393357 -76.1898468 64.01644493 -72.90625 61.1875 C-71.00726929 59.49951714 -69.21744012 57.74980266 -67.4375 55.9375 C-64.39917583 52.84393357 -61.1898468 50.01644493 -57.90625 47.1875 C-56.00726929 45.49951714 -54.21744012 43.74980266 -52.4375 41.9375 C-49.39917583 38.84393357 -46.1898468 36.01644493 -42.90625 33.1875 C-41.00726929 31.49951714 -39.21744012 29.74980266 -37.4375 27.9375 C-34.39917583 24.84393357 -31.1898468 22.01644493 -27.90625 19.1875 C-26.00726929 17.49951714 -24.21744012 15.74980266 -22.4375 13.9375 C-8.69938942 0.01119613 -8.69938942 0.01119613 0 0 Z " fill="#008376" transform="translate(255.9375,63.5625)"/>
<path d="M0 0 C7.10583356 -0.2474699 10.45367366 2.52051076 15.55859375 7.1796875 C16.85561688 8.40718845 18.14839241 9.63918885 19.4375 10.875 C20.86177115 12.22547984 22.28625522 13.57573514 23.7109375 14.92578125 C24.42733398 15.60721191 25.14373047 16.28864258 25.88183594 16.99072266 C29.09040346 20.03434998 32.3259005 23.04874553 35.5625 26.0625 C36.80347207 27.21995919 38.04435746 28.37751132 39.28515625 29.53515625 C39.89762207 30.10637207 40.51008789 30.67758789 41.14111328 31.26611328 C44.26146303 34.17663651 47.38067102 37.08838287 50.5 40 C51.74999459 41.16667246 52.99999459 42.33333913 54.25 43.5 C111.75 97.16666667 169.25 150.83333333 226.75 204.5 C227.3697168 205.0782251 227.98943359 205.6564502 228.62792969 206.25219727 C229.86887988 207.41077348 231.10912297 208.57010756 232.34863281 209.73022461 C235.60648983 212.77749608 238.87817194 215.80788221 242.171875 218.81640625 C242.85443359 219.44353516 243.53699219 220.07066406 244.24023438 220.71679688 C245.54432305 221.91442933 246.85268307 223.10743362 248.16601562 224.29492188 C249.05063477 225.10993164 249.05063477 225.10993164 249.953125 225.94140625 C250.47036133 226.41263916 250.98759766 226.88387207 251.52050781 227.36938477 C256.65153397 233.02452069 256.43975741 238.04500445 256.41992188 245.38037109 C256.42839142 246.53053207 256.43686096 247.68069305 256.44558716 248.8657074 C256.4689891 252.66839654 256.46997847 256.47068179 256.46875 260.2734375 C256.47584987 262.91753298 256.48354861 265.56162692 256.49182129 268.20571899 C256.50641956 273.74883302 256.50701268 279.29183454 256.50097656 284.83496094 C256.49433861 291.2318246 256.51719262 297.62811123 256.55429029 304.02485788 C256.58874206 310.19026366 256.59531972 316.35539776 256.59120178 322.5208931 C256.59289488 325.13874657 256.60255543 327.75660752 256.62034607 330.37440109 C256.64249684 334.03701184 256.63285113 337.69823357 256.61523438 341.36083984 C256.62849762 342.44055557 256.64176086 343.5202713 256.65542603 344.63270569 C256.57950466 351.43101035 255.6089469 354.92809368 251 360 C246.07171487 363.55294974 240.87935919 363.94946173 235 363 C229.39175626 360.78945137 225.31013026 356.58982649 221.25 352.2578125 C218.66157231 349.66039721 215.91941729 347.2929151 213.14990234 344.89160156 C209.6210073 341.78668687 206.22179551 338.54748805 202.8125 335.3125 C197.69148278 330.47257543 192.56100543 325.64528055 187.375 320.875 C182.7313222 316.60310688 178.10929858 312.30897268 173.5 308 C168.84743476 303.65119826 164.1840551 299.31486849 159.5 295 C154.1735933 290.09340861 148.87656925 285.15605861 143.5859375 280.2109375 C139.57030049 276.45970457 135.54169247 272.72313543 131.5 269 C126.1735933 264.09340861 120.87656925 259.15605861 115.5859375 254.2109375 C111.57030049 250.45970457 107.54169247 246.72313543 103.5 243 C98.1735933 238.09340861 92.87656925 233.15605861 87.5859375 228.2109375 C83.57030049 224.45970457 79.54169247 220.72313543 75.5 217 C70.1735933 212.09340861 64.87656925 207.15605861 59.5859375 202.2109375 C55.57030049 198.45970457 51.54169247 194.72313543 47.5 191 C42.81594425 186.68513091 38.15264291 182.34871931 33.5 178 C28.80407685 173.61145509 24.09986052 169.23238554 19.375 164.875 C17.95221489 163.50189163 17.95221489 163.50189163 16.50068665 162.1010437 C14.22754634 159.98543319 12.29941312 158.58496469 9.57832336 156.97296143 C5.34625818 154.34323539 2.2441416 151.50858841 0 147 C-2.28442897 136.9879246 -1.55711091 126.30779207 -1.31812119 116.09969616 C-1.23631239 112.01207773 -1.22917619 107.9243093 -1.21379089 103.83599854 C-1.17353976 96.11101557 -1.06708345 88.38845209 -0.93624753 80.66453004 C-0.79044698 71.864279 -0.71934247 63.06390636 -0.65420687 54.26274633 C-0.51867629 36.17379739 -0.29033148 18.08709385 0 0 Z " fill="#009688" transform="translate(256,64)"/>
</svg>
