<?xml version="1.0" encoding="UTF-8"?>
<!DOCTYPE svg PUBLIC "-//W3C//DTD SVG 1.1//EN" "http://www.w3.org/Graphics/SVG/1.1/DTD/svg11.dtd">
<svg xmlns="http://www.w3.org/2000/svg" version="1.1" width="512px" height="512px" style="shape-rendering:geometricPrecision; text-rendering:geometricPrecision; image-rendering:optimizeQuality; fill-rule:evenodd; clip-rule:evenodd" xmlns:xlink="http://www.w3.org/1999/xlink">
<g><path style="opacity:1" fill="#e4404d" d="M 204.5,238.5 C 211.27,229.718 215.437,219.718 217,208.5C 217.667,165.833 217.667,123.167 217,80.5C 212.263,53.4296 196.429,37.263 169.5,32C 124.833,31.3333 80.1667,31.3333 35.5,32C 32.9999,32.3747 30.6666,33.2081 28.5,34.5C 27.8933,34.3764 27.56,34.0431 27.5,33.5C 35.8354,23.4928 46.5021,17.3261 59.5,15C 105.167,14.3333 150.833,14.3333 196.5,15C 221.559,20.7253 236.392,36.2253 241,61.5C 241.667,105.833 241.667,150.167 241,194.5C 237.013,215.984 224.846,230.651 204.5,238.5 Z"/></g>
<g><path style="opacity:1" fill="#00cd8a" d="M 430.5,218.5 C 461.803,184.024 468.97,145.024 452,101.5C 424.717,52.4513 383.55,34.2846 328.5,47C 323.924,49.1235 319.257,50.9569 314.5,52.5C 330.088,37.5431 348.754,28.7097 370.5,26C 419.254,22.477 454.754,42.3104 477,85.5C 494.309,130.963 485.809,170.796 451.5,205C 445.123,210.519 438.123,215.019 430.5,218.5 Z"/></g>
<g><path style="opacity:0.997" fill="#fc4654" d="M 204.5,238.5 C 200.969,239.757 197.302,240.591 193.5,241C 149.833,241.667 106.167,241.667 62.5,241C 36.8322,236.086 20.9989,220.919 15,195.5C 14.3333,150.167 14.3333,104.833 15,59.5C 16.7994,49.5715 20.966,40.9048 27.5,33.5C 27.56,34.0431 27.8933,34.3764 28.5,34.5C 30.6666,33.2081 32.9999,32.3747 35.5,32C 80.1667,31.3333 124.833,31.3333 169.5,32C 196.429,37.263 212.263,53.4296 217,80.5C 217.667,123.167 217.667,165.833 217,208.5C 215.437,219.718 211.27,229.718 204.5,238.5 Z"/></g>
<g><path style="opacity:0.995" fill="#00e399" d="M 430.5,218.5 C 396.89,235.071 363.557,234.238 330.5,216C 289.799,188.26 274.299,150.093 284,101.5C 289.161,81.8037 299.327,65.4704 314.5,52.5C 319.257,50.9569 323.924,49.1235 328.5,47C 383.55,34.2846 424.717,52.4513 452,101.5C 468.97,145.024 461.803,184.024 430.5,218.5 Z"/></g>
<g><path style="opacity:1" fill="#e6a025" d="M 460.5,493.5 C 466.364,485.093 470.197,475.76 472,465.5C 472.667,421.167 472.667,376.833 472,332.5C 465.851,306.685 449.684,291.518 423.5,287C 380.167,286.333 336.833,286.333 293.5,287C 290.511,287.33 287.678,288.164 285,289.5C 284.235,289.43 283.735,289.097 283.5,288.5C 290.859,279.667 300.192,273.834 311.5,271C 335.466,269.864 359.466,269.364 383.5,269.5C 405.5,269.667 427.5,269.833 449.5,270C 478.294,275.793 494.127,293.293 497,322.5C 497.667,363.167 497.667,403.833 497,444.5C 494.517,468.163 482.351,484.497 460.5,493.5 Z"/></g>
<g><path style="opacity:1" fill="#56a5e6" d="M 211.5,485.5 C 217.883,474.361 219.049,462.695 215,450.5C 189.92,406.004 164.586,361.671 139,317.5C 128.758,300.694 113.925,294.028 94.5,297.5C 104.567,282.643 118.567,276.81 136.5,280C 147.949,282.972 156.782,289.472 163,299.5C 188,342.833 213,386.167 238,429.5C 246.359,452.088 240.526,469.922 220.5,483C 217.647,484.43 214.647,485.263 211.5,485.5 Z"/></g>
<g><path style="opacity:0.997" fill="#feb128" d="M 460.5,493.5 C 457.657,494.771 454.657,495.604 451.5,496C 405.833,496.667 360.167,496.667 314.5,496C 295.65,491.814 282.15,480.981 274,463.5C 271.887,458.716 270.554,453.716 270,448.5C 269.333,404.833 269.333,361.167 270,317.5C 271.316,306.209 275.816,296.543 283.5,288.5C 283.735,289.097 284.235,289.43 285,289.5C 287.678,288.164 290.511,287.33 293.5,287C 336.833,286.333 380.167,286.333 423.5,287C 449.684,291.518 465.851,306.685 472,332.5C 472.667,376.833 472.667,421.167 472,465.5C 470.197,475.76 466.364,485.093 460.5,493.5 Z"/></g>
<g><path style="opacity:0.992" fill="#5fb6fe" d="M 211.5,485.5 C 209.708,486.309 207.708,486.809 205.5,487C 153.5,487.667 101.5,487.667 49.5,487C 27.9591,482.622 15.9591,469.456 13.5,447.5C 13.9746,442.007 15.1412,436.674 17,431.5C 42.6076,386.607 68.4409,341.94 94.5,297.5C 113.925,294.028 128.758,300.694 139,317.5C 164.586,361.671 189.92,406.004 215,450.5C 219.049,462.695 217.883,474.361 211.5,485.5 Z"/></g>
</svg>
