<?xml version="1.0" encoding="UTF-8"?>
<!DOCTYPE svg PUBLIC "-//W3C//DTD SVG 1.1//EN" "http://www.w3.org/Graphics/SVG/1.1/DTD/svg11.dtd">
<svg xmlns="http://www.w3.org/2000/svg" version="1.1" width="512px" height="512px" style="shape-rendering:geometricPrecision; text-rendering:geometricPrecision; image-rendering:optimizeQuality; fill-rule:evenodd; clip-rule:evenodd" xmlns:xlink="http://www.w3.org/1999/xlink">
<g><path style="opacity:1" fill="#fec138" d="M 472.5,102.5 C 469.15,102.665 465.817,102.498 462.5,102C 452.795,98.9488 442.961,96.4488 433,94.5C 426.422,95.1252 421.755,98.4585 419,104.5C 400.613,161.825 368.447,209.658 322.5,248C 305.67,259.249 288.67,270.249 271.5,281C 264.199,284.283 258.865,282.449 255.5,275.5C 255.5,271.833 255.5,268.167 255.5,264.5C 255.334,254.494 255.5,244.494 256,234.5C 256.915,233.672 257.581,232.672 258,231.5C 272.798,225.515 287.632,219.849 302.5,214.5C 349.123,194.044 380.623,159.71 397,111.5C 397.995,108.874 398.328,106.207 398,103.5C 385.911,97.2055 373.745,91.0389 361.5,85C 357.878,80.9429 357.712,76.7762 361,72.5C 387.779,54.1966 414.946,36.5299 442.5,19.5C 446.583,19.752 449.416,21.752 451,25.5C 458.326,51.1414 465.493,76.8081 472.5,102.5 Z"/></g>
<g><path style="opacity:0.991" fill="#2d9739" d="M 160.5,79.5 C 153.985,82.8666 151.485,88.1999 153,95.5C 158,104.167 163,112.833 168,121.5C 173.632,128.402 180.798,132.902 189.5,135C 209.164,135.5 228.831,135.667 248.5,135.5C 245.847,140.807 243.18,146.14 240.5,151.5C 213.167,151.5 185.833,151.5 158.5,151.5C 151.346,138.527 144.179,125.527 137,112.5C 133.123,101.428 134.956,91.4278 142.5,82.5C 143.7,81.4688 145.034,80.6355 146.5,80C 151.155,79.5008 155.821,79.3342 160.5,79.5 Z"/></g>
<g><path style="opacity:1" fill="#43bb58" d="M 160.5,79.5 C 191.921,79.0151 223.254,79.5151 254.5,81C 263.722,89.8718 266.222,100.372 262,112.5C 257.637,120.336 253.137,128.003 248.5,135.5C 228.831,135.667 209.164,135.5 189.5,135C 180.798,132.902 173.632,128.402 168,121.5C 163,112.833 158,104.167 153,95.5C 151.485,88.1999 153.985,82.8666 160.5,79.5 Z"/></g>
<g><path style="opacity:0.989" fill="#f2a606" d="M 472.5,102.5 C 474.298,106.741 475.632,111.241 476.5,116C 475.327,122.181 471.66,124.848 465.5,124C 451.568,119.855 437.568,116.022 423.5,112.5C 408.386,165.758 381.719,212.091 343.5,251.5C 324.571,267.753 304.237,282.086 282.5,294.5C 277.133,298.434 271.299,301.434 265,303.5C 260.22,303.205 257.053,300.872 255.5,296.5C 255.5,289.5 255.5,282.5 255.5,275.5C 258.865,282.449 264.199,284.283 271.5,281C 288.67,270.249 305.67,259.249 322.5,248C 368.447,209.658 400.613,161.825 419,104.5C 421.755,98.4585 426.422,95.1252 433,94.5C 442.961,96.4488 452.795,98.9488 462.5,102C 465.817,102.498 469.15,102.665 472.5,102.5 Z"/></g>
<g><path style="opacity:1" fill="#ffd45c" d="M 158.5,151.5 C 185.833,151.5 213.167,151.5 240.5,151.5C 249.365,152.032 254.365,156.699 255.5,165.5C 253.914,166.148 252.247,166.648 250.5,167C 221.5,167.667 192.5,167.667 163.5,167C 156.871,164.869 152.871,160.369 151.5,153.5C 153.438,151.837 155.772,151.171 158.5,151.5 Z"/></g>
<g><path style="opacity:0.991" fill="#ffc239" d="M 151.5,153.5 C 152.871,160.369 156.871,164.869 163.5,167C 192.5,167.667 221.5,167.667 250.5,167C 252.247,166.648 253.914,166.148 255.5,165.5C 256.431,173.807 253.098,179.641 245.5,183C 236.84,183.5 228.173,183.666 219.5,183.5C 206.167,183.5 192.833,183.5 179.5,183.5C 170.827,183.666 162.16,183.5 153.5,183C 144.518,178.527 141.351,171.36 144,161.5C 145.347,157.656 147.847,154.989 151.5,153.5 Z"/></g>
<g><path style="opacity:0.992" fill="#2d9739" d="M 179.5,183.5 C 192.833,183.5 206.167,183.5 219.5,183.5C 242.759,186.475 264.759,193.475 285.5,204.5C 215.557,177.528 156.057,192.194 107,248.5C 60.7701,307.347 51.4368,371.68 79,441.5C 86.744,458.044 96.244,473.377 107.5,487.5C 91.1667,487.5 74.8333,487.5 58.5,487.5C 13.8649,430.241 3.69826,367.241 28,298.5C 57.4635,232.512 107.964,194.179 179.5,183.5 Z"/></g>
<g><path style="opacity:1" fill="#fec239" d="M 479.5,183.5 C 479.333,273.167 479.5,362.834 480,452.5C 482.846,459.523 488.013,463.19 495.5,463.5C 495.5,466.167 495.5,468.833 495.5,471.5C 484.833,471.5 474.167,471.5 463.5,471.5C 463.5,375.5 463.5,279.5 463.5,183.5C 468.833,183.5 474.167,183.5 479.5,183.5 Z"/></g>
<g><path style="opacity:1" fill="#ffd45c" d="M 479.5,183.5 C 484.833,183.5 490.167,183.5 495.5,183.5C 495.5,276.833 495.5,370.167 495.5,463.5C 488.013,463.19 482.846,459.523 480,452.5C 479.5,362.834 479.333,273.167 479.5,183.5 Z"/></g>
<g><path style="opacity:1" fill="#44bb59" d="M 285.5,204.5 C 291.668,207.08 297.335,210.414 302.5,214.5C 287.632,219.849 272.798,225.515 258,231.5C 257.581,232.672 256.915,233.672 256,234.5C 255.5,244.494 255.334,254.494 255.5,264.5C 225.802,245.57 194.468,242.403 161.5,255C 156.148,257.339 151.148,260.172 146.5,263.5C 108.971,290.912 96.1374,327.246 108,372.5C 121.85,410.347 148.683,432.513 188.5,439C 206.263,440.484 223.263,437.651 239.5,430.5C 239.5,444.167 239.5,457.833 239.5,471.5C 250.167,471.5 260.833,471.5 271.5,471.5C 271.5,468.833 271.5,466.167 271.5,463.5C 271.5,444.5 271.5,425.5 271.5,406.5C 274.185,403.81 276.518,400.81 278.5,397.5C 287.514,384.451 293.181,370.118 295.5,354.5C 295.5,393.5 295.5,432.5 295.5,471.5C 306.167,471.5 316.833,471.5 327.5,471.5C 327.5,468.833 327.5,466.167 327.5,463.5C 327.5,423.5 327.5,383.5 327.5,343.5C 322.167,343.5 316.833,343.5 311.5,343.5C 306.167,343.5 300.833,343.5 295.5,343.5C 295.969,335.504 294.969,327.837 292.5,320.5C 292.5,320.167 292.5,319.833 292.5,319.5C 315.691,307.33 336.024,291.33 353.5,271.5C 354.325,270.614 355.325,270.281 356.5,270.5C 360.277,275.719 363.277,281.385 365.5,287.5C 360.833,287.5 356.167,287.5 351.5,287.5C 351.5,348.833 351.5,410.167 351.5,471.5C 347.859,476.815 344.192,482.149 340.5,487.5C 262.833,487.5 185.167,487.5 107.5,487.5C 96.244,473.377 86.744,458.044 79,441.5C 51.4368,371.68 60.7701,307.347 107,248.5C 156.057,192.194 215.557,177.528 285.5,204.5 Z"/></g>
<g><path style="opacity:1" fill="#ffc239" d="M 423.5,231.5 C 423.333,305.167 423.5,378.834 424,452.5C 426.846,459.523 432.013,463.19 439.5,463.5C 439.5,466.167 439.5,468.833 439.5,471.5C 428.833,471.5 418.167,471.5 407.5,471.5C 407.5,391.5 407.5,311.5 407.5,231.5C 412.833,231.5 418.167,231.5 423.5,231.5 Z"/></g>
<g><path style="opacity:1" fill="#ffd45c" d="M 423.5,231.5 C 428.833,231.5 434.167,231.5 439.5,231.5C 439.5,308.833 439.5,386.167 439.5,463.5C 432.013,463.19 426.846,459.523 424,452.5C 423.5,378.834 423.333,305.167 423.5,231.5 Z"/></g>
<g><path style="opacity:1" fill="#ccf7c7" d="M 255.5,264.5 C 255.5,268.167 255.5,271.833 255.5,275.5C 255.5,282.5 255.5,289.5 255.5,296.5C 255.334,306.839 255.5,317.172 256,327.5C 258.304,335.113 263.137,337.279 270.5,334C 277.719,329.275 285.052,324.775 292.5,320.5C 294.969,327.837 295.969,335.504 295.5,343.5C 295.5,347.167 295.5,350.833 295.5,354.5C 293.181,370.118 287.514,384.451 278.5,397.5C 276.02,398.242 273.687,399.242 271.5,400.5C 271.5,392.167 271.5,383.833 271.5,375.5C 266.167,375.5 260.833,375.5 255.5,375.5C 250.167,375.5 244.833,375.5 239.5,375.5C 239.5,387.167 239.5,398.833 239.5,410.5C 226.144,412.439 213.144,411.439 200.5,407.5C 202.833,407.5 205.167,407.5 207.5,407.5C 207.335,404.482 207.502,401.482 208,398.5C 228.865,389.43 235.532,374.097 228,352.5C 224.833,346.667 220.333,342.167 214.5,339C 206.486,336.857 198.486,334.857 190.5,333C 181.323,323.949 181.323,314.949 190.5,306C 204.317,300.573 212.651,305.073 215.5,319.5C 220.833,319.5 226.167,319.5 231.5,319.5C 230.308,304.14 222.475,293.807 208,288.5C 207.502,285.518 207.335,282.518 207.5,279.5C 202.167,279.5 196.833,279.5 191.5,279.5C 191.817,282.572 191.484,285.572 190.5,288.5C 168.297,298.917 162.464,315.251 173,337.5C 177.587,343.749 183.587,348.082 191,350.5C 196.987,350.98 202.82,352.147 208.5,354C 216.415,360.816 217.581,368.649 212,377.5C 202.988,385.795 194.322,385.461 186,376.5C 184.698,373.625 183.865,370.625 183.5,367.5C 178.167,367.5 172.833,367.5 167.5,367.5C 168.693,382.686 176.36,393.02 190.5,398.5C 191.466,400.396 191.799,402.396 191.5,404.5C 146.133,382.78 126.633,346.78 133,296.5C 135.879,284.755 140.379,273.755 146.5,263.5C 151.148,260.172 156.148,257.339 161.5,255C 194.468,242.403 225.802,245.57 255.5,264.5 Z"/></g>
<g><path style="opacity:1" fill="#2e9739" d="M 343.5,251.5 C 348.224,257.559 352.557,263.892 356.5,270.5C 355.325,270.281 354.325,270.614 353.5,271.5C 336.024,291.33 315.691,307.33 292.5,319.5C 290.343,310.696 287.01,302.362 282.5,294.5C 304.237,282.086 324.571,267.753 343.5,251.5 Z"/></g>
<g><path style="opacity:1" fill="#aae3a2" d="M 146.5,263.5 C 140.379,273.755 135.879,284.755 133,296.5C 126.633,346.78 146.133,382.78 191.5,404.5C 191.5,405.5 191.5,406.5 191.5,407.5C 194.5,407.5 197.5,407.5 200.5,407.5C 213.144,411.439 226.144,412.439 239.5,410.5C 239.5,417.167 239.5,423.833 239.5,430.5C 223.263,437.651 206.263,440.484 188.5,439C 148.683,432.513 121.85,410.347 108,372.5C 96.1374,327.246 108.971,290.912 146.5,263.5 Z"/></g>
<g><path style="opacity:1" fill="#2f983a" d="M 200.5,407.5 C 197.5,407.5 194.5,407.5 191.5,407.5C 191.5,406.5 191.5,405.5 191.5,404.5C 191.799,402.396 191.466,400.396 190.5,398.5C 176.36,393.02 168.693,382.686 167.5,367.5C 172.833,367.5 178.167,367.5 183.5,367.5C 183.865,370.625 184.698,373.625 186,376.5C 194.322,385.461 202.988,385.795 212,377.5C 217.581,368.649 216.415,360.816 208.5,354C 202.82,352.147 196.987,350.98 191,350.5C 183.587,348.082 177.587,343.749 173,337.5C 162.464,315.251 168.297,298.917 190.5,288.5C 191.484,285.572 191.817,282.572 191.5,279.5C 196.833,279.5 202.167,279.5 207.5,279.5C 207.335,282.518 207.502,285.518 208,288.5C 222.475,293.807 230.308,304.14 231.5,319.5C 226.167,319.5 220.833,319.5 215.5,319.5C 212.651,305.073 204.317,300.573 190.5,306C 181.323,314.949 181.323,323.949 190.5,333C 198.486,334.857 206.486,336.857 214.5,339C 220.333,342.167 224.833,346.667 228,352.5C 235.532,374.097 228.865,389.43 208,398.5C 207.502,401.482 207.335,404.482 207.5,407.5C 205.167,407.5 202.833,407.5 200.5,407.5 Z"/></g>
<g><path style="opacity:1" fill="#ffc239" d="M 365.5,287.5 C 366.167,287.5 366.833,287.5 367.5,287.5C 367.333,342.501 367.5,397.501 368,452.5C 370.846,459.523 376.013,463.19 383.5,463.5C 383.5,466.167 383.5,468.833 383.5,471.5C 372.833,471.5 362.167,471.5 351.5,471.5C 351.5,410.167 351.5,348.833 351.5,287.5C 356.167,287.5 360.833,287.5 365.5,287.5 Z"/></g>
<g><path style="opacity:1" fill="#ffd45c" d="M 367.5,287.5 C 372.833,287.5 378.167,287.5 383.5,287.5C 383.5,346.167 383.5,404.833 383.5,463.5C 376.013,463.19 370.846,459.523 368,452.5C 367.5,397.501 367.333,342.501 367.5,287.5 Z"/></g>
<g><path style="opacity:1" fill="#abe3a2" d="M 282.5,294.5 C 287.01,302.362 290.343,310.696 292.5,319.5C 292.5,319.833 292.5,320.167 292.5,320.5C 285.052,324.775 277.719,329.275 270.5,334C 263.137,337.279 258.304,335.113 256,327.5C 255.5,317.172 255.334,306.839 255.5,296.5C 257.053,300.872 260.22,303.205 265,303.5C 271.299,301.434 277.133,298.434 282.5,294.5 Z"/></g>
<g><path style="opacity:1" fill="#ffc239" d="M 295.5,343.5 C 300.833,343.5 306.167,343.5 311.5,343.5C 311.333,379.835 311.5,416.168 312,452.5C 314.846,459.523 320.013,463.19 327.5,463.5C 327.5,466.167 327.5,468.833 327.5,471.5C 316.833,471.5 306.167,471.5 295.5,471.5C 295.5,432.5 295.5,393.5 295.5,354.5C 295.5,350.833 295.5,347.167 295.5,343.5 Z"/></g>
<g><path style="opacity:1" fill="#ffd45c" d="M 311.5,343.5 C 316.833,343.5 322.167,343.5 327.5,343.5C 327.5,383.5 327.5,423.5 327.5,463.5C 320.013,463.19 314.846,459.523 312,452.5C 311.5,416.168 311.333,379.835 311.5,343.5 Z"/></g>
<g><path style="opacity:1" fill="#ffc239" d="M 255.5,375.5 C 255.333,401.169 255.5,426.835 256,452.5C 258.846,459.523 264.013,463.19 271.5,463.5C 271.5,466.167 271.5,468.833 271.5,471.5C 260.833,471.5 250.167,471.5 239.5,471.5C 239.5,457.833 239.5,444.167 239.5,430.5C 239.5,423.833 239.5,417.167 239.5,410.5C 239.5,398.833 239.5,387.167 239.5,375.5C 244.833,375.5 250.167,375.5 255.5,375.5 Z"/></g>
<g><path style="opacity:1" fill="#ffd45c" d="M 255.5,375.5 C 260.833,375.5 266.167,375.5 271.5,375.5C 271.5,383.833 271.5,392.167 271.5,400.5C 271.5,402.5 271.5,404.5 271.5,406.5C 271.5,425.5 271.5,444.5 271.5,463.5C 264.013,463.19 258.846,459.523 256,452.5C 255.5,426.835 255.333,401.169 255.5,375.5 Z"/></g>
<g><path style="opacity:1" fill="#a7e2a0" d="M 278.5,397.5 C 276.518,400.81 274.185,403.81 271.5,406.5C 271.5,404.5 271.5,402.5 271.5,400.5C 273.687,399.242 276.02,398.242 278.5,397.5 Z"/></g>
<g><path style="opacity:1" fill="#fec238" d="M 58.5,487.5 C 74.8333,487.5 91.1667,487.5 107.5,487.5C 185.167,487.5 262.833,487.5 340.5,487.5C 392.167,487.5 443.833,487.5 495.5,487.5C 495.5,492.833 495.5,498.167 495.5,503.5C 335.5,503.5 175.5,503.5 15.5,503.5C 15.5,498.167 15.5,492.833 15.5,487.5C 29.8333,487.5 44.1667,487.5 58.5,487.5 Z"/></g>
</svg>
