<?xml version="1.0" encoding="UTF-8"?>
<!DOCTYPE svg PUBLIC "-//W3C//DTD SVG 1.1//EN" "http://www.w3.org/Graphics/SVG/1.1/DTD/svg11.dtd">
<svg xmlns="http://www.w3.org/2000/svg" version="1.1" width="512px" height="512px" style="shape-rendering:geometricPrecision; text-rendering:geometricPrecision; image-rendering:optimizeQuality; fill-rule:evenodd; clip-rule:evenodd" xmlns:xlink="http://www.w3.org/1999/xlink">
<g><path style="opacity:0.979" fill="#010100" d="M 158.5,211.5 C 157.892,214.958 155.892,217.458 152.5,219C 113.167,219.333 73.8333,219.667 34.5,220C 29.6667,222.167 26.1667,225.667 24,230.5C 23.3333,312.5 23.3333,394.5 24,476.5C 26.1667,481.333 29.6667,484.833 34.5,487C 181.833,487.667 329.167,487.667 476.5,487C 481.333,484.833 484.833,481.333 487,476.5C 487.667,394.5 487.667,312.5 487,230.5C 484.833,225.667 481.333,222.167 476.5,220C 379.833,219.667 283.167,219.333 186.5,219C 183.292,217.563 181.625,215.063 181.5,211.5C 181.146,208.039 182.479,205.539 185.5,204C 193.159,203.5 200.826,203.334 208.5,203.5C 208.5,179.5 208.5,155.5 208.5,131.5C 194.735,131.964 181.068,131.464 167.5,130C 166.299,129.097 165.465,127.931 165,126.5C 164.333,115.167 164.333,103.833 165,92.5C 192.807,64.3596 220.974,36.5262 249.5,9C 253.5,7 257.5,7 261.5,9C 290.026,36.5262 318.193,64.3596 346,92.5C 346.667,103.833 346.667,115.167 346,126.5C 345.535,127.931 344.701,129.097 343.5,130C 329.932,131.464 316.265,131.964 302.5,131.5C 302.5,155.5 302.5,179.5 302.5,203.5C 334.833,203.5 367.167,203.5 399.5,203.5C 399.5,187.5 399.5,171.5 399.5,155.5C 390.161,155.666 380.827,155.5 371.5,155C 370.667,154.167 369.833,153.333 369,152.5C 367,142.5 367,132.5 369,122.5C 389.5,102.667 410,82.8333 430.5,63C 434.167,61 437.833,61 441.5,63C 462.359,82.8592 482.859,103.026 503,123.5C 503.949,133.6 503.615,143.6 502,153.5C 501.25,154.126 500.416,154.626 499.5,155C 490.506,155.5 481.506,155.666 472.5,155.5C 472.5,171.5 472.5,187.5 472.5,203.5C 488.236,204.448 498.403,212.448 503,227.5C 503.667,311.5 503.667,395.5 503,479.5C 499.833,492 492,499.833 479.5,503C 330.167,503.667 180.833,503.667 31.5,503C 19,499.833 11.1667,492 8,479.5C 7.33333,395.5 7.33333,311.5 8,227.5C 12.5973,212.448 22.7639,204.448 38.5,203.5C 38.5,187.5 38.5,171.5 38.5,155.5C 29.4938,155.666 20.4938,155.5 11.5,155C 10.5838,154.626 9.75044,154.126 9,153.5C 7.38464,143.6 7.05131,133.6 8,123.5C 28.1412,103.026 48.6412,82.8592 69.5,63C 73.1667,61 76.8333,61 80.5,63C 101,82.8333 121.5,102.667 142,122.5C 144,132.5 144,142.5 142,152.5C 141.167,153.333 140.333,154.167 139.5,155C 130.173,155.5 120.839,155.666 111.5,155.5C 111.5,171.5 111.5,187.5 111.5,203.5C 125.837,203.333 140.171,203.5 154.5,204C 157.024,205.883 158.358,208.383 158.5,211.5 Z"/></g>
<g><path style="opacity:1" fill="#dbe674" d="M 329.5,98.5 C 329.5,103.833 329.5,109.167 329.5,114.5C 316.656,114.171 303.989,114.505 291.5,115.5C 288.909,116.254 287.076,117.921 286,120.5C 285.5,148.165 285.333,175.831 285.5,203.5C 265.5,203.5 245.5,203.5 225.5,203.5C 225.667,175.831 225.5,148.165 225,120.5C 223.945,117.944 222.112,116.277 219.5,115.5C 207.011,114.505 194.344,114.171 181.5,114.5C 181.5,109.167 181.5,103.833 181.5,98.5C 205.513,74.1537 230.18,50.4871 255.5,27.5C 280.82,50.4871 305.487,74.1537 329.5,98.5 Z"/></g>
<g><path style="opacity:1" fill="#dbe674" d="M 74.5,81.5 C 92.3824,96.8774 109.549,113.211 126,130.5C 126.498,133.482 126.665,136.482 126.5,139.5C 117.494,139.334 108.494,139.5 99.5,140C 98.3333,141.167 97.1667,142.333 96,143.5C 94.5241,163.408 94.0241,183.408 94.5,203.5C 81.5,203.5 68.5,203.5 55.5,203.5C 55.6666,183.831 55.5,164.164 55,144.5C 54.065,141.898 52.2317,140.398 49.5,140C 40.8397,139.5 32.1731,139.334 23.5,139.5C 23.3354,136.482 23.502,133.482 24,130.5C 41.0327,114.3 57.8661,97.9662 74.5,81.5 Z"/></g>
<g><path style="opacity:1" fill="#dbe674" d="M 434.5,81.5 C 435.552,81.3505 436.552,81.5172 437.5,82C 453.695,98.529 470.195,114.696 487,130.5C 487.498,133.482 487.665,136.482 487.5,139.5C 478.494,139.334 469.494,139.5 460.5,140C 459.069,140.465 457.903,141.299 457,142.5C 455.524,162.741 455.024,183.075 455.5,203.5C 442.5,203.5 429.5,203.5 416.5,203.5C 416.976,183.408 416.476,163.408 415,143.5C 413.786,141.951 412.286,140.785 410.5,140C 401.84,139.5 393.173,139.334 384.5,139.5C 384.335,136.482 384.502,133.482 385,130.5C 401.479,114.037 417.979,97.7037 434.5,81.5 Z"/></g>
<g><path style="opacity:1" fill="#73793d" d="M 181.5,98.5 C 181.5,103.833 181.5,109.167 181.5,114.5C 194.344,114.171 207.011,114.505 219.5,115.5C 206.5,115.5 193.5,115.5 180.5,115.5C 180.178,109.642 180.511,103.975 181.5,98.5 Z"/></g>
<g><path style="opacity:1" fill="#73783c" d="M 329.5,98.5 C 330.489,103.975 330.822,109.642 330.5,115.5C 317.5,115.5 304.5,115.5 291.5,115.5C 303.989,114.505 316.656,114.171 329.5,114.5C 329.5,109.167 329.5,103.833 329.5,98.5 Z"/></g>
<g><path style="opacity:1" fill="#65ba69" d="M 158.5,211.5 C 166.167,211.5 173.833,211.5 181.5,211.5C 181.625,215.063 183.292,217.563 186.5,219C 283.167,219.333 379.833,219.667 476.5,220C 481.333,222.167 484.833,225.667 487,230.5C 487.667,312.5 487.667,394.5 487,476.5C 484.833,481.333 481.333,484.833 476.5,487C 329.167,487.667 181.833,487.667 34.5,487C 29.6667,484.833 26.1667,481.333 24,476.5C 23.3333,394.5 23.3333,312.5 24,230.5C 26.1667,225.667 29.6667,222.167 34.5,220C 73.8333,219.667 113.167,219.333 152.5,219C 155.892,217.458 157.892,214.958 158.5,211.5 Z"/></g>
<g><path style="opacity:1" fill="#000100" d="M 84.5,243.5 C 109.502,243.333 134.502,243.5 159.5,244C 164.224,246.435 165.724,250.269 164,255.5C 119.649,301.265 109.982,353.598 135,412.5C 142.473,427.106 152.14,440.106 164,451.5C 165.724,456.731 164.224,460.565 159.5,463C 134.5,463.667 109.5,463.667 84.5,463C 83.0692,462.535 81.9025,461.701 81,460.5C 79.9246,442.426 70.4246,432.592 52.5,431C 51.0692,430.535 49.9025,429.701 49,428.5C 47.3475,379.225 47.0142,329.892 48,280.5C 48.8333,278.333 50.3333,276.833 52.5,276C 69.6584,274.842 78.825,265.675 80,248.5C 81.025,246.313 82.525,244.646 84.5,243.5 Z"/></g>
<g><path style="opacity:1" fill="#030301" d="M 332.5,419.5 C 330.537,416.482 330.037,413.149 331,409.5C 350.459,381.263 354.459,350.929 343,318.5C 323.206,276.511 290.039,257.011 243.5,260C 207.99,266.169 182.824,285.669 168,318.5C 154.014,360.87 163.514,397.037 196.5,427C 232.382,452.444 269.382,454.111 307.5,432C 311.327,431.024 314.66,431.857 317.5,434.5C 319.152,438.576 318.485,442.243 315.5,445.5C 272.159,470.849 229.826,469.349 188.5,441C 153.628,411.726 140.128,374.559 148,329.5C 161.577,280.589 193.41,252.089 243.5,244C 283.986,241.334 317.153,255.5 343,286.5C 368.353,322.159 372.353,360.159 355,400.5C 351.706,407.594 347.54,414.094 342.5,420C 339.05,422.009 335.717,421.842 332.5,419.5 Z"/></g>
<g><path style="opacity:1" fill="#000100" d="M 351.5,243.5 C 376.169,243.333 400.836,243.5 425.5,244C 427.329,244.273 428.829,245.107 430,246.5C 431.482,265.315 441.648,275.482 460.5,277C 461.701,277.903 462.535,279.069 463,280.5C 463.667,328.833 463.667,377.167 463,425.5C 462.727,427.329 461.893,428.829 460.5,430C 449.942,430.029 441.442,434.196 435,442.5C 432.718,449.041 430.551,455.541 428.5,462C 402.896,463.639 377.229,463.972 351.5,463C 346.776,460.565 345.276,456.731 347,451.5C 390.595,406.461 400.595,354.794 377,296.5C 369.2,281.236 359.2,267.569 347,255.5C 345.309,250.131 346.809,246.131 351.5,243.5 Z"/></g>
<g><path style="opacity:1" fill="#429f46" d="M 94.5,259.5 C 109.17,259.333 123.837,259.5 138.5,260C 107.593,300.249 98.4262,345.082 111,394.5C 116.905,413.815 126.072,431.315 138.5,447C 123.837,447.5 109.17,447.667 94.5,447.5C 90.6207,431.287 80.6207,420.953 64.5,416.5C 63.1667,374.5 63.1667,332.5 64.5,290.5C 80.6201,286.047 90.6201,275.714 94.5,259.5 Z"/></g>
<g><path style="opacity:1" fill="#fdb100" d="M 332.5,419.5 C 328.5,425.5 323.5,430.5 317.5,434.5C 314.66,431.857 311.327,431.024 307.5,432C 269.382,454.111 232.382,452.444 196.5,427C 163.514,397.037 154.014,360.87 168,318.5C 182.824,285.669 207.99,266.169 243.5,260C 290.039,257.011 323.206,276.511 343,318.5C 354.459,350.929 350.459,381.263 331,409.5C 330.037,413.149 330.537,416.482 332.5,419.5 Z"/></g>
<g><path style="opacity:1" fill="#429f46" d="M 372.5,260.5 C 387.005,259.174 401.672,259.174 416.5,260.5C 420.962,276.63 431.295,286.63 447.5,290.5C 447.5,332.5 447.5,374.5 447.5,416.5C 430.833,420.5 420.5,430.833 416.5,447.5C 401.83,447.667 387.163,447.5 372.5,447C 398.817,412.574 409.317,373.741 404,330.5C 399.682,304.211 389.182,280.878 372.5,260.5 Z"/></g>
<g><path style="opacity:1" fill="#010000" d="M 252.5,278.5 C 257.28,277.641 260.78,279.308 263,283.5C 263.5,290.826 263.666,298.159 263.5,305.5C 276.241,305.059 288.908,305.559 301.5,307C 305.5,311.333 305.5,315.667 301.5,320C 280.898,321.299 260.231,321.966 239.5,322C 234,327.5 228.5,333 223,338.5C 222.503,340.81 222.337,343.143 222.5,345.5C 247.836,345.333 273.169,345.5 298.5,346C 300.329,346.273 301.829,347.107 303,348.5C 304.107,352.888 304.607,357.388 304.5,362C 304.607,366.612 304.107,371.112 303,375.5C 294.833,383.667 286.667,391.833 278.5,400C 273.628,401.388 268.628,401.888 263.5,401.5C 263.666,408.508 263.5,415.508 263,422.5C 260.567,428.448 256.4,429.948 250.5,427C 249.107,425.829 248.273,424.329 248,422.5C 247.5,415.508 247.334,408.508 247.5,401.5C 235.495,401.667 223.495,401.5 211.5,401C 205.741,397.108 205.074,392.441 209.5,387C 230.078,385.689 250.744,385.023 271.5,385C 277,379.5 282.5,374 288,368.5C 288.497,366.19 288.663,363.857 288.5,361.5C 262.831,361.667 237.165,361.5 211.5,361C 210.069,360.535 208.903,359.701 208,358.5C 206.393,349.936 206.06,341.27 207,332.5C 215.833,323.667 224.667,314.833 233.5,306C 238.155,305.501 242.821,305.334 247.5,305.5C 247.334,298.159 247.5,290.826 248,283.5C 249.025,281.313 250.525,279.646 252.5,278.5 Z"/></g>
</svg>
