<?xml version="1.0" encoding="UTF-8"?>
<!DOCTYPE svg PUBLIC "-//W3C//DTD SVG 1.1//EN" "http://www.w3.org/Graphics/SVG/1.1/DTD/svg11.dtd">
<svg xmlns="http://www.w3.org/2000/svg" version="1.1" width="512px" height="512px" style="shape-rendering:geometricPrecision; text-rendering:geometricPrecision; image-rendering:optimizeQuality; fill-rule:evenodd; clip-rule:evenodd" xmlns:xlink="http://www.w3.org/1999/xlink">
<g><path style="opacity:0.983" fill="#fddb40" d="M 250.5,-0.5 C 252.167,-0.5 253.833,-0.5 255.5,-0.5C 255.5,61.1667 255.5,122.833 255.5,184.5C 238.108,192.695 220.774,201.195 203.5,210C 190.477,213.959 182.811,209.292 180.5,196C 183.848,176.427 187.515,156.927 191.5,137.5C 177.514,123.014 163.347,108.681 149,94.5C 144.062,84.6575 146.229,76.8241 155.5,71C 175.822,67.9181 196.155,64.9181 216.5,62C 225.189,43.4547 234.022,24.9547 243,6.5C 245.015,3.58828 247.515,1.25495 250.5,-0.5 Z"/></g>
<g><path style="opacity:1" fill="#ffcc33" d="M 255.5,-0.5 C 257.5,-0.5 259.5,-0.5 261.5,-0.5C 264.386,0.879222 266.886,2.87922 269,5.5C 278.189,24.5794 286.689,43.9127 294.5,63.5C 315.238,66.5816 335.904,70.0816 356.5,74C 363.54,78.2554 366.04,84.4221 364,92.5C 363.099,95.0707 361.766,97.404 360,99.5C 346.333,112.5 332.667,125.5 319,138.5C 321.605,158.137 324.438,177.803 327.5,197.5C 325.781,210.059 318.781,214.893 306.5,212C 289.119,203.313 272.119,194.147 255.5,184.5C 255.5,122.833 255.5,61.1667 255.5,-0.5 Z"/></g>
<g><path style="opacity:1" fill="#fdda41" d="M 255.5,240.5 C 255.5,260.5 255.5,280.5 255.5,300.5C 253.901,300.232 252.568,300.566 251.5,301.5C 250.078,301.709 248.745,302.209 247.5,303C 236,314.5 224.5,326 213,337.5C 208.508,347.684 211.341,355.184 221.5,360C 229.048,360.978 235.214,358.478 240,352.5C 240.333,371.5 240.667,390.5 241,409.5C 242.453,415.123 245.953,418.456 251.5,419.5C 252.568,420.434 253.901,420.768 255.5,420.5C 255.5,450.833 255.5,481.167 255.5,511.5C 220.5,511.5 185.5,511.5 150.5,511.5C 150.5,451.167 150.5,390.833 150.5,330.5C 150.333,303.498 150.5,276.498 151,249.5C 152.5,245.333 155.333,242.5 159.5,241C 191.498,240.5 223.498,240.333 255.5,240.5 Z"/></g>
<g><path style="opacity:1" fill="#fecb33" d="M 255.5,240.5 C 287.502,240.333 319.502,240.5 351.5,241C 355.667,242.5 358.5,245.333 360,249.5C 360.5,286.498 360.667,323.498 360.5,360.5C 360.5,410.833 360.5,461.167 360.5,511.5C 325.5,511.5 290.5,511.5 255.5,511.5C 255.5,481.167 255.5,450.833 255.5,420.5C 263.076,420.422 267.909,416.755 270,409.5C 270.667,376.5 270.667,343.5 270,310.5C 267.128,304.314 262.294,300.981 255.5,300.5C 255.5,280.5 255.5,260.5 255.5,240.5 Z"/></g>
<g><path style="opacity:1" fill="#0b5c91" d="M 251.5,301.5 C 252.568,300.566 253.901,300.232 255.5,300.5C 262.294,300.981 267.128,304.314 270,310.5C 270.667,343.5 270.667,376.5 270,409.5C 267.909,416.755 263.076,420.422 255.5,420.5C 253.901,420.768 252.568,420.434 251.5,419.5C 252.833,419.5 254.167,419.5 255.5,419.5C 255.5,380.167 255.5,340.833 255.5,301.5C 254.167,301.5 252.833,301.5 251.5,301.5 Z"/></g>
<g><path style="opacity:1" fill="#0f70b1" d="M 251.5,301.5 C 252.833,301.5 254.167,301.5 255.5,301.5C 255.5,340.833 255.5,380.167 255.5,419.5C 254.167,419.5 252.833,419.5 251.5,419.5C 245.953,418.456 242.453,415.123 241,409.5C 240.667,390.5 240.333,371.5 240,352.5C 235.214,358.478 229.048,360.978 221.5,360C 211.341,355.184 208.508,347.684 213,337.5C 224.5,326 236,314.5 247.5,303C 248.745,302.209 250.078,301.709 251.5,301.5 Z"/></g>
<g><path style="opacity:0.999" fill="#fda831" d="M 150.5,330.5 C 150.5,390.833 150.5,451.167 150.5,511.5C 103.167,511.5 55.8333,511.5 8.5,511.5C 7.01307,510.196 5.3464,509.03 3.5,508C 2.30342,505.985 0.970083,504.151 -0.5,502.5C -0.5,448.167 -0.5,393.833 -0.5,339.5C 1.31481,335.521 4.31481,332.688 8.5,331C 55.8322,330.5 103.165,330.333 150.5,330.5 Z"/></g>
<g><path style="opacity:0.999" fill="#fd9922" d="M 360.5,360.5 C 407.835,360.333 455.168,360.5 502.5,361C 506.685,362.688 509.685,365.521 511.5,369.5C 511.5,413.833 511.5,458.167 511.5,502.5C 510.196,503.987 509.03,505.654 508,507.5C 505.985,508.697 504.151,510.03 502.5,511.5C 455.167,511.5 407.833,511.5 360.5,511.5C 360.5,461.167 360.5,410.833 360.5,360.5 Z"/></g>
</svg>
