<?xml version="1.0" encoding="UTF-8"?>
<!DOCTYPE svg PUBLIC "-//W3C//DTD SVG 1.1//EN" "http://www.w3.org/Graphics/SVG/1.1/DTD/svg11.dtd">
<svg xmlns="http://www.w3.org/2000/svg" version="1.1" width="200px" height="200px" style="shape-rendering:geometricPrecision; text-rendering:geometricPrecision; image-rendering:optimizeQuality; fill-rule:evenodd; clip-rule:evenodd" xmlns:xlink="http://www.w3.org/1999/xlink">
<g><path style="opacity:1" fill="#fdfdfd" d="M -0.5,-0.5 C 66.1667,-0.5 132.833,-0.5 199.5,-0.5C 199.5,66.1667 199.5,132.833 199.5,199.5C 132.833,199.5 66.1667,199.5 -0.5,199.5C -0.5,132.833 -0.5,66.1667 -0.5,-0.5 Z"/></g>
<g><path style="opacity:1" fill="#ffeaa2" d="M 104.5,7.5 C 99.7971,7.43718 95.1304,7.77052 90.5,8.5C 92.8066,6.9532 95.4733,6.28653 98.5,6.5C 100.696,6.50465 102.696,6.83798 104.5,7.5 Z"/></g>
<g><path style="opacity:1" fill="#fece3d" d="M 104.5,7.5 C 104.833,7.5 105.167,7.5 105.5,7.5C 105.229,9.43046 104.229,10.7638 102.5,11.5C 92.8017,11.514 85.8017,15.8474 81.5,24.5C 80.1932,25.1534 78.8599,25.8201 77.5,26.5C 76.7025,26.0431 76.3691,25.3764 76.5,24.5C 78.667,16.9984 83.3337,11.6651 90.5,8.5C 95.1304,7.77052 99.7971,7.43718 104.5,7.5 Z"/></g>
<g><path style="opacity:1" fill="#fee082" d="M 105.5,7.5 C 111.926,8.20938 116.926,11.2094 120.5,16.5C 118.833,17.1667 117.167,17.8333 115.5,18.5C 111.883,14.8936 107.55,12.5603 102.5,11.5C 104.229,10.7638 105.229,9.43046 105.5,7.5 Z"/></g>
<g><path style="opacity:1" fill="#f08904" d="M 118.5,24.5 C 119.893,26.5112 120.56,28.8446 120.5,31.5C 120.104,35.352 119.104,39.0186 117.5,42.5C 115.5,45.1667 113.167,47.5 110.5,49.5C 102.456,52.6777 94.7889,52.011 87.5,47.5C 86.5,45.8333 85.1667,44.5 83.5,43.5C 83.6716,42.5084 83.3382,41.8417 82.5,41.5C 80.4063,36.5012 80.073,31.5012 81.5,26.5C 88.9286,13.8276 99.2619,10.9942 112.5,18C 114.734,20.0627 116.734,22.2294 118.5,24.5 Z"/></g>
<g><path style="opacity:1" fill="#de6405" d="M 102.5,11.5 C 107.55,12.5603 111.883,14.8936 115.5,18.5C 116.512,19.8717 117.512,21.205 118.5,22.5C 118.5,23.1667 118.5,23.8333 118.5,24.5C 116.734,22.2294 114.734,20.0627 112.5,18C 99.2619,10.9942 88.9286,13.8276 81.5,26.5C 81.5,25.8333 81.5,25.1667 81.5,24.5C 85.8017,15.8474 92.8017,11.514 102.5,11.5 Z"/></g>
<g><path style="opacity:1" fill="#fecd38" d="M 120.5,16.5 C 120.833,17.1667 121.167,17.8333 121.5,18.5C 121.912,20.9726 120.912,22.3059 118.5,22.5C 117.512,21.205 116.512,19.8717 115.5,18.5C 117.167,17.8333 118.833,17.1667 120.5,16.5 Z"/></g>
<g><path style="opacity:1" fill="#fbd672" d="M 109.5,22.5 C 106.177,25.6103 102.177,27.277 97.5,27.5C 98.0253,28.1924 98.6919,28.6924 99.5,29C 97.0829,30.6258 94.5829,32.1258 92,33.5C 91.7679,32.2625 91.2679,31.2625 90.5,30.5C 88.0233,29.88 88.0233,28.88 90.5,27.5C 90.2577,24.681 90.2577,21.681 90.5,18.5C 94.8461,18.3343 99.1794,18.501 103.5,19C 106.025,19.4238 108.025,20.5905 109.5,22.5 Z"/></g>
<g><path style="opacity:1" fill="#fddc79" d="M 76.5,24.5 C 76.3691,25.3764 76.7025,26.0431 77.5,26.5C 78.8599,25.8201 80.1932,25.1534 81.5,24.5C 81.5,25.1667 81.5,25.8333 81.5,26.5C 80.073,31.5012 80.4063,36.5012 82.5,41.5C 80.3591,41.1121 78.3591,41.1121 76.5,41.5C 75.196,35.734 75.196,30.0673 76.5,24.5 Z"/></g>
<g><path style="opacity:1" fill="#fad670" d="M 113.5,26.5 C 113.5,27.8333 113.5,29.1667 113.5,30.5C 111.095,31.6871 108.761,33.1871 106.5,35C 104.19,35.4966 101.857,35.6633 99.5,35.5C 103.819,32.0043 108.485,29.0043 113.5,26.5 Z"/></g>
<g><path style="opacity:1" fill="#fed86c" d="M 121.5,18.5 C 123.163,20.4927 124.33,22.8261 125,25.5C 125.815,30.3522 125.648,35.0189 124.5,39.5C 124.631,38.7611 124.464,38.0944 124,37.5C 121.713,39.0544 119.546,40.7211 117.5,42.5C 119.104,39.0186 120.104,35.352 120.5,31.5C 120.56,28.8446 119.893,26.5112 118.5,24.5C 118.5,23.8333 118.5,23.1667 118.5,22.5C 120.912,22.3059 121.912,20.9726 121.5,18.5 Z"/></g>
<g><path style="opacity:1" fill="#fedc76" d="M 97.5,36.5 C 97.5,37.8333 97.5,39.1667 97.5,40.5C 95.5742,41.2423 93.7409,42.2423 92,43.5C 91.2797,41.8876 91.4464,40.3876 92.5,39C 94.1932,38.1534 95.8599,37.3201 97.5,36.5 Z"/></g>
<g><path style="opacity:1" fill="#fdcb38" d="M 124.5,39.5 C 124.737,40.791 124.404,41.791 123.5,42.5C 116.666,54.22 106.666,58.5534 93.5,55.5C 98.5557,53.3145 103.889,51.8145 109.5,51C 110.056,50.6174 110.389,50.1174 110.5,49.5C 113.167,47.5 115.5,45.1667 117.5,42.5C 119.546,40.7211 121.713,39.0544 124,37.5C 124.464,38.0944 124.631,38.7611 124.5,39.5 Z"/></g>
<g><path style="opacity:1" fill="#fac036" d="M 82.5,41.5 C 83.3382,41.8417 83.6716,42.5084 83.5,43.5C 83.1898,45.1436 82.1898,46.1436 80.5,46.5C 79.8333,46.1667 79.1667,45.8333 78.5,45.5C 77.3263,44.4863 76.6596,43.153 76.5,41.5C 78.3591,41.1121 80.3591,41.1121 82.5,41.5 Z"/></g>
<g><path style="opacity:1" fill="#fac333" d="M 109.5,22.5 C 111.134,23.5812 112.467,24.9145 113.5,26.5C 108.485,29.0043 103.819,32.0043 99.5,35.5C 98.5084,35.3284 97.8417,35.6618 97.5,36.5C 95.8599,37.3201 94.1932,38.1534 92.5,39C 91.4464,40.3876 91.2797,41.8876 92,43.5C 93.7409,42.2423 95.5742,41.2423 97.5,40.5C 97.5,41.8333 97.5,43.1667 97.5,44.5C 95.1667,44.5 92.8333,44.5 90.5,44.5C 90.5,39.8333 90.5,35.1667 90.5,30.5C 91.2679,31.2625 91.7679,32.2625 92,33.5C 94.5829,32.1258 97.0829,30.6258 99.5,29C 98.6919,28.6924 98.0253,28.1924 97.5,27.5C 102.177,27.277 106.177,25.6103 109.5,22.5 Z"/></g>
<g><path style="opacity:1" fill="#fdde7c" d="M 83.5,43.5 C 85.1667,44.5 86.5,45.8333 87.5,47.5C 85.6203,47.2291 84.287,47.8958 83.5,49.5C 82.1667,48.8333 81.1667,47.8333 80.5,46.5C 82.1898,46.1436 83.1898,45.1436 83.5,43.5 Z"/></g>
<g><path style="opacity:1" fill="#404245" d="M 41.5,62.5 C 40.6862,64.631 40.1862,66.9644 40,69.5C 39.586,69.9574 39.086,70.2907 38.5,70.5C 37.4138,66.8449 37.4138,63.1782 38.5,59.5C 31.5,60.8333 24.5,60.8333 17.5,59.5C 17.8174,62.5719 17.4841,65.5719 16.5,68.5C 15.8313,66.3691 15.1646,64.3691 14.5,62.5C 14.3342,57.8215 14.5008,53.1548 15,48.5C 21.7765,47.1889 28.6099,47.1889 35.5,48.5C 35.8076,49.3081 36.3076,49.9747 37,50.5C 38.3374,49.2351 39.8374,48.7351 41.5,49C 42.1436,53.414 42.1436,57.914 41.5,62.5 Z"/></g>
<g><path style="opacity:1" fill="#424347" d="M 182.5,57.5 C 180.744,58.5521 180.077,60.2188 180.5,62.5C 179.5,62.5 178.5,62.5 177.5,62.5C 177.895,59.4775 176.895,58.4775 174.5,59.5C 173.784,58.689 172.95,58.0223 172,57.5C 170.7,58.7073 169.2,59.3739 167.5,59.5C 165.564,58.741 163.731,57.741 162,56.5C 159.201,57.237 159.034,58.0703 161.5,59C 160.255,59.7914 158.922,60.2914 157.5,60.5C 156.504,60.5858 155.671,60.2524 155,59.5C 154.506,61.1341 154.34,62.8008 154.5,64.5C 153.5,64.5 152.5,64.5 151.5,64.5C 151.879,61.4331 150.879,60.4331 148.5,61.5C 148.689,47.8189 155.689,41.6523 169.5,43C 177.285,44.942 181.619,49.7753 182.5,57.5 Z"/></g>
<g><path style="opacity:1" fill="#6b97b0" d="M 160.5,48.5 C 164.846,48.3343 169.179,48.501 173.5,49C 175.116,49.6152 176.449,50.6152 177.5,52C 171.167,52.3333 164.833,52.6667 158.5,53C 156.833,53.8333 155.167,54.6667 153.5,55.5C 152.479,54.9984 152.312,54.3317 153,53.5C 155.426,51.5476 157.926,49.881 160.5,48.5 Z"/></g>
<g><path style="opacity:1" fill="#de6714" d="M 123.5,42.5 C 121.018,50.4805 115.685,55.6471 107.5,58C 98.6793,59.8886 90.6793,58.2219 83.5,53C 80.8002,51.1433 79.1335,48.6433 78.5,45.5C 79.1667,45.8333 79.8333,46.1667 80.5,46.5C 81.1667,47.8333 82.1667,48.8333 83.5,49.5C 84.1667,50.8333 85.1667,51.8333 86.5,52.5C 88.4261,54.2927 90.7594,55.2927 93.5,55.5C 106.666,58.5534 116.666,54.22 123.5,42.5 Z"/></g>
<g><path style="opacity:1" fill="#fddd7e" d="M 87.5,47.5 C 94.7889,52.011 102.456,52.6777 110.5,49.5C 110.389,50.1174 110.056,50.6174 109.5,51C 103.889,51.8145 98.5557,53.3145 93.5,55.5C 90.7594,55.2927 88.4261,54.2927 86.5,52.5C 87.6266,51.8783 88.6266,51.045 89.5,50C 88.244,49.5831 87.5774,48.7498 87.5,47.5 Z"/></g>
<g><path style="opacity:1" fill="#fecd38" d="M 87.5,47.5 C 87.5774,48.7498 88.244,49.5831 89.5,50C 88.6266,51.045 87.6266,51.8783 86.5,52.5C 85.1667,51.8333 84.1667,50.8333 83.5,49.5C 84.287,47.8958 85.6203,47.2291 87.5,47.5 Z"/></g>
<g><path style="opacity:1" fill="#070707" d="M 64.5,62.5 C 66.1992,62.3398 67.8659,62.5065 69.5,63C 75.1506,65.4128 80.6506,67.9128 86,70.5C 96.1666,69.4922 106.333,69.3255 116.5,70C 121.703,65.3907 127.703,63.0574 134.5,63C 135.863,64.9449 136.697,67.1116 137,69.5C 137.219,74.5152 137.219,79.5152 137,84.5C 141.239,90.2852 143.072,96.7852 142.5,104C 144.064,118.565 138.064,128.232 124.5,133C 109.983,136.751 95.3161,137.417 80.5,135C 63.855,131.383 55.855,121.049 56.5,104C 55.3222,96.6243 57.1556,90.1243 62,84.5C 61.7812,79.5152 61.7812,74.5152 62,69.5C 62.3793,66.9699 63.2126,64.6365 64.5,62.5 Z"/></g>
<g><path style="opacity:1" fill="#83665a" d="M 157.5,60.5 C 157.082,61.2216 156.416,61.7216 155.5,62C 158.047,62.0674 160.214,62.9007 162,64.5C 162.844,66.4628 162.344,67.7961 160.5,68.5C 159.852,66.9142 159.352,65.2475 159,63.5C 158.617,64.056 158.117,64.3893 157.5,64.5C 156.5,64.5 155.5,64.5 154.5,64.5C 154.34,62.8008 154.506,61.1341 155,59.5C 155.671,60.2524 156.504,60.5858 157.5,60.5 Z"/></g>
<g><path style="opacity:1" fill="#b27456" d="M 41.5,62.5 C 42.9279,65.0116 43.4279,67.6783 43,70.5C 41.7365,72.607 39.9032,73.607 37.5,73.5C 37.5,77.8333 37.5,82.1667 37.5,86.5C 37.1667,86.5 36.8333,86.5 36.5,86.5C 36.5,83.1667 36.5,79.8333 36.5,76.5C 35.0413,76.4326 33.7079,76.7659 32.5,77.5C 32.0831,76.8761 31.4164,76.5427 30.5,76.5C 28.8957,76.9391 27.3957,77.6057 26,78.5C 23.2565,77.1969 20.4232,76.1969 17.5,75.5C 16.8333,75.5 16.5,75.1667 16.5,74.5C 16.5,73.5 16.5,72.5 16.5,71.5C 12.0243,71.1778 10.5243,68.8444 12,64.5C 12.9947,63.9341 13.828,63.2674 14.5,62.5C 15.1646,64.3691 15.8313,66.3691 16.5,68.5C 17.4841,65.5719 17.8174,62.5719 17.5,59.5C 24.5,60.8333 31.5,60.8333 38.5,59.5C 37.4138,63.1782 37.4138,66.8449 38.5,70.5C 39.086,70.2907 39.586,69.9574 40,69.5C 40.1862,66.9644 40.6862,64.631 41.5,62.5 Z"/></g>
<g><path style="opacity:1" fill="#554d4b" d="M 35.5,66.5 C 33.9699,67.2112 32.6366,68.2112 31.5,69.5C 30.8466,68.1932 30.1799,66.8599 29.5,65.5C 31.8333,64.1667 34.1667,64.1667 36.5,65.5C 36.3764,66.1067 36.0431,66.44 35.5,66.5 Z"/></g>
<g><path style="opacity:1" fill="#dcd4d1" d="M 20.5,65.5 C 20.9599,66.9992 22.2933,67.9992 24.5,68.5C 23.4324,69.4345 22.099,69.7678 20.5,69.5C 20.5,68.1667 20.5,66.8333 20.5,65.5 Z"/></g>
<g><path style="opacity:1" fill="#524e4f" d="M 24.5,68.5 C 22.2933,67.9992 20.9599,66.9992 20.5,65.5C 19.9569,65.44 19.6236,65.1067 19.5,64.5C 24.3093,62.4154 25.9759,63.7488 24.5,68.5 Z"/></g>
<g><path style="opacity:1" fill="#b97857" d="M 167.5,59.5 C 170.305,60.3195 173.305,60.8195 176.5,61C 175.584,61.2784 174.918,61.7784 174.5,62.5C 173.833,62.5 173.167,62.5 172.5,62.5C 171.351,62.7911 170.684,63.6244 170.5,65C 170.684,66.3756 171.351,67.2089 172.5,67.5C 174.912,67.3059 175.912,65.9726 175.5,63.5C 175.842,62.6618 176.508,62.3284 177.5,62.5C 178.5,62.5 179.5,62.5 180.5,62.5C 180.077,60.2188 180.744,58.5521 182.5,57.5C 184.015,59.5034 184.681,61.8368 184.5,64.5C 184.444,66.6397 183.777,68.3064 182.5,69.5C 181.791,68.596 180.791,68.2627 179.5,68.5C 179.385,70.9468 178.385,72.9468 176.5,74.5C 175.094,74.9731 174.427,75.9731 174.5,77.5C 171.444,81.2407 167.444,82.4073 162.5,81C 161.364,79.8549 160.364,78.6883 159.5,77.5C 159.027,76.0937 158.027,75.427 156.5,75.5C 155.569,73.9783 154.402,72.6449 153,71.5C 151.627,72.5152 150.46,72.5152 149.5,71.5C 149.318,69.3254 148.651,67.3254 147.5,65.5C 147.846,64.1508 148.179,62.8175 148.5,61.5C 150.879,60.4331 151.879,61.4331 151.5,64.5C 152.5,64.5 153.5,64.5 154.5,64.5C 155.5,64.5 156.5,64.5 157.5,64.5C 157.088,66.9726 158.088,68.3059 160.5,68.5C 162.344,67.7961 162.844,66.4628 162,64.5C 160.214,62.9007 158.047,62.0674 155.5,62C 156.416,61.7216 157.082,61.2216 157.5,60.5C 158.922,60.2914 160.255,59.7914 161.5,59C 159.034,58.0703 159.201,57.237 162,56.5C 163.731,57.741 165.564,58.741 167.5,59.5 Z"/></g>
<g><path style="opacity:1" fill="#ded9d6" d="M 172.5,62.5 C 173.167,62.5 173.833,62.5 174.5,62.5C 174.5,63.1667 174.833,63.5 175.5,63.5C 175.912,65.9726 174.912,67.3059 172.5,67.5C 173.833,65.8333 173.833,64.1667 172.5,62.5 Z"/></g>
<g><path style="opacity:1" fill="#4f5052" d="M 172.5,62.5 C 173.833,64.1667 173.833,65.8333 172.5,67.5C 171.351,67.2089 170.684,66.3756 170.5,65C 170.684,63.6244 171.351,62.7911 172.5,62.5 Z"/></g>
<g><path style="opacity:1" fill="#dfdad8" d="M 160.5,68.5 C 158.088,68.3059 157.088,66.9726 157.5,64.5C 158.117,64.3893 158.617,64.056 159,63.5C 159.352,65.2475 159.852,66.9142 160.5,68.5 Z"/></g>
<g><path style="opacity:1" fill="#75584c" d="M 177.5,62.5 C 176.508,62.3284 175.842,62.6618 175.5,63.5C 174.833,63.5 174.5,63.1667 174.5,62.5C 174.918,61.7784 175.584,61.2784 176.5,61C 173.305,60.8195 170.305,60.3195 167.5,59.5C 169.2,59.3739 170.7,58.7073 172,57.5C 172.95,58.0223 173.784,58.689 174.5,59.5C 176.895,58.4775 177.895,59.4775 177.5,62.5 Z"/></g>
<g><path style="opacity:1" fill="#ddcdc5" d="M 35.5,66.5 C 35.8333,69.5 34.5,70.8333 31.5,70.5C 31.5,70.1667 31.5,69.8333 31.5,69.5C 32.6366,68.2112 33.9699,67.2112 35.5,66.5 Z"/></g>
<g><path style="opacity:1" fill="#474241" d="M 31.5,70.5 C 31.8039,71.1499 32.1373,71.8165 32.5,72.5C 29.2317,73.487 25.8984,73.8204 22.5,73.5C 22.5,72.5 22.5,71.5 22.5,70.5C 25.5,70.5 28.5,70.5 31.5,70.5 Z"/></g>
<g><path style="opacity:1" fill="#474648" d="M 182.5,69.5 C 183.989,71.6451 184.989,73.9785 185.5,76.5C 184.167,76.5 182.833,76.5 181.5,76.5C 179.694,75.9759 178.028,75.3092 176.5,74.5C 178.385,72.9468 179.385,70.9468 179.5,68.5C 180.791,68.2627 181.791,68.596 182.5,69.5 Z"/></g>
<g><path style="opacity:1" fill="#48494b" d="M 149.5,71.5 C 150.46,72.5152 151.627,72.5152 153,71.5C 154.402,72.6449 155.569,73.9783 156.5,75.5C 155.209,75.2627 154.209,75.596 153.5,76.5C 151.076,76.8076 148.743,76.4742 146.5,75.5C 147.521,74.0986 148.521,72.7653 149.5,71.5 Z"/></g>
<g><path style="opacity:1" fill="#e49c5f" d="M 16.5,74.5 C 16.5,75.1667 16.8333,75.5 17.5,75.5C 18.9164,77.9158 20.9164,79.9158 23.5,81.5C 24.48,84.0865 24.8134,86.7531 24.5,89.5C 22.1944,89.9926 19.861,90.3259 17.5,90.5C 16.1114,86.4447 15.1114,82.2781 14.5,78C 14.6083,76.3189 15.2749,75.1522 16.5,74.5 Z"/></g>
<g><path style="opacity:1" fill="#b37659" d="M 46.5,74.5 C 53.6729,72.8389 56.1729,75.5055 54,82.5C 49.7288,84.4956 45.2288,84.9956 40.5,84C 39.4053,81.7311 39.7386,79.5645 41.5,77.5C 43.5435,76.9348 45.2102,75.9348 46.5,74.5 Z"/></g>
<g><path style="opacity:1" fill="#3bb072" d="M 176.5,74.5 C 178.028,75.3092 179.694,75.9759 181.5,76.5C 181.663,80.7071 181.329,84.8737 180.5,89C 180.316,90.3756 179.649,91.2089 178.5,91.5C 170.833,90.1667 163.167,90.1667 155.5,91.5C 153.883,90.4107 153.05,88.744 153,86.5C 152.253,83.0764 152.42,79.7431 153.5,76.5C 154.209,75.596 155.209,75.2627 156.5,75.5C 158.027,75.427 159.027,76.0937 159.5,77.5C 159.726,82.2088 162.226,84.2088 167,83.5C 171.459,83.8696 173.959,81.8696 174.5,77.5C 174.427,75.9731 175.094,74.9731 176.5,74.5 Z"/></g>
<g><path style="opacity:1" fill="#cdcec8" d="M 159.5,77.5 C 160.364,78.6883 161.364,79.8549 162.5,81C 167.444,82.4073 171.444,81.2407 174.5,77.5C 173.959,81.8696 171.459,83.8696 167,83.5C 162.226,84.2088 159.726,82.2088 159.5,77.5 Z"/></g>
<g><path style="opacity:1" fill="#e39a5c" d="M 36.5,86.5 C 36.5,87.1667 36.5,87.8333 36.5,88.5C 33.8333,88.5 31.1667,88.5 28.5,88.5C 27.5124,83.8077 28.8458,80.141 32.5,77.5C 33.7079,76.7659 35.0413,76.4326 36.5,76.5C 36.5,79.8333 36.5,83.1667 36.5,86.5 Z"/></g>
<g><path style="opacity:1" fill="#bfc1ca" d="M 17.5,75.5 C 20.4232,76.1969 23.2565,77.1969 26,78.5C 27.3957,77.6057 28.8957,76.9391 30.5,76.5C 31.4164,76.5427 32.0831,76.8761 32.5,77.5C 28.8458,80.141 27.5124,83.8077 28.5,88.5C 31.1667,88.5 33.8333,88.5 36.5,88.5C 32.7016,89.4834 28.7016,89.8168 24.5,89.5C 24.8134,86.7531 24.48,84.0865 23.5,81.5C 20.9164,79.9158 18.9164,77.9158 17.5,75.5 Z"/></g>
<g><path style="opacity:1" fill="#b7795c" d="M 7.5,79.5 C 9.88632,80.3733 11.8863,81.8733 13.5,84C 12.9781,84.5613 12.6448,85.228 12.5,86C 15.0255,89.2763 15.0255,92.6096 12.5,96C 4.91049,96.7289 2.07715,93.2289 4,85.5C 4.92601,83.3083 6.09267,81.3083 7.5,79.5 Z"/></g>
<g><path style="opacity:1" fill="#6868b8" d="M 36.5,86.5 C 36.8333,86.5 37.1667,86.5 37.5,86.5C 40.0255,94.1246 38.0255,96.2913 31.5,93C 29.1902,92.5034 26.8568,92.3367 24.5,92.5C 24.5,94.1667 24.5,95.8333 24.5,97.5C 22.1667,97.5 19.8333,97.5 17.5,97.5C 17.5,95.1667 17.5,92.8333 17.5,90.5C 19.861,90.3259 22.1944,89.9926 24.5,89.5C 28.7016,89.8168 32.7016,89.4834 36.5,88.5C 36.5,87.8333 36.5,87.1667 36.5,86.5 Z"/></g>
<g><path style="opacity:1" fill="#444245" d="M 178.5,91.5 C 178.672,92.4916 178.338,93.1583 177.5,93.5C 177.167,93.5 176.833,93.5 176.5,93.5C 169.978,93.1765 163.645,93.5098 157.5,94.5C 156.094,94.0269 155.427,93.0269 155.5,91.5C 163.167,90.1667 170.833,90.1667 178.5,91.5 Z"/></g>
<g><path style="opacity:1" fill="#6264b5" d="M 176.5,93.5 C 176.5,95.5 176.5,97.5 176.5,99.5C 174.5,99.5 172.5,99.5 170.5,99.5C 170.5,98.5 170.5,97.5 170.5,96.5C 168.265,96.2053 166.265,96.5386 164.5,97.5C 164.5,98.1667 164.5,98.8333 164.5,99.5C 162.167,99.5 159.833,99.5 157.5,99.5C 157.5,97.8333 157.5,96.1667 157.5,94.5C 163.645,93.5098 169.978,93.1765 176.5,93.5 Z"/></g>
<g><path style="opacity:1" fill="#d09a6d" d="M 28.5,97.5 C 32.134,96.6055 35.4674,97.6055 38.5,100.5C 35.1322,100.385 31.7988,99.3851 28.5,97.5 Z"/></g>
<g><path style="opacity:1" fill="#f5f5f5" d="M 77.5,97.5 C 84.0045,98.0839 90.5045,98.7505 97,99.5C 103.529,99.1215 110.029,98.4548 116.5,97.5C 128.392,98.9281 133.226,105.595 131,117.5C 127.842,126.006 121.676,130.506 112.5,131C 103.5,131.667 94.5,131.667 85.5,131C 69.6488,127.746 64.4821,118.579 70,103.5C 72.1337,100.847 74.6337,98.8474 77.5,97.5 Z"/></g>
<g><path style="opacity:1" fill="#b98169" d="M 157.5,99.5 C 159.833,99.5 162.167,99.5 164.5,99.5C 164.5,100.833 164.5,102.167 164.5,103.5C 162.167,103.5 159.833,103.5 157.5,103.5C 157.5,102.167 157.5,100.833 157.5,99.5 Z"/></g>
<g><path style="opacity:1" fill="#0d0d0d" d="M 80.5,102.5 C 87.803,103.749 90.6363,108.083 89,115.5C 88.2181,121.295 85.0514,123.462 79.5,122C 75.2355,115.178 75.5688,108.678 80.5,102.5 Z"/></g>
<g><path style="opacity:1" fill="#0c0c0c" d="M 114.5,102.5 C 120.446,103.12 123.113,106.453 122.5,112.5C 123.061,117.733 120.894,121.066 116,122.5C 114.289,122.561 112.956,121.894 112,120.5C 108.129,113.835 108.963,107.835 114.5,102.5 Z"/></g>
<g><path style="opacity:1" fill="#becad5" d="M 157.5,103.5 C 159.833,103.5 162.167,103.5 164.5,103.5C 164.5,105.5 164.5,107.5 164.5,109.5C 160.774,109.823 157.107,109.489 153.5,108.5C 155.404,107.234 156.737,105.567 157.5,103.5 Z"/></g>
<g><path style="opacity:1" fill="#ccd0d7" d="M 176.5,93.5 C 176.833,93.5 177.167,93.5 177.5,93.5C 177.334,97.5138 177.501,101.514 178,105.5C 179.022,106.354 179.855,107.354 180.5,108.5C 176.893,109.489 173.226,109.823 169.5,109.5C 169.5,105.5 169.5,101.5 169.5,97.5C 167.833,97.5 166.167,97.5 164.5,97.5C 166.265,96.5386 168.265,96.2053 170.5,96.5C 170.5,97.5 170.5,98.5 170.5,99.5C 170.5,100.833 170.5,102.167 170.5,103.5C 172.5,103.5 174.5,103.5 176.5,103.5C 176.5,102.167 176.5,100.833 176.5,99.5C 176.5,97.5 176.5,95.5 176.5,93.5 Z"/></g>
<g><path style="opacity:1" fill="#b67b63" d="M 170.5,99.5 C 172.5,99.5 174.5,99.5 176.5,99.5C 176.5,100.833 176.5,102.167 176.5,103.5C 174.5,103.5 172.5,103.5 170.5,103.5C 170.5,102.167 170.5,100.833 170.5,99.5 Z"/></g>
<g><path style="opacity:1" fill="#c47e5c" d="M 179.5,145.5 C 178.521,148.625 178.187,151.958 178.5,155.5C 177.5,155.5 176.5,155.5 175.5,155.5C 175.5,151.833 175.5,148.167 175.5,144.5C 172.11,145.023 168.777,145.857 165.5,147C 163.898,149.262 161.731,150.762 159,151.5C 157.743,151.15 157.409,150.483 158,149.5C 159.067,148.809 160.234,148.309 161.5,148C 159.567,147.749 157.734,147.249 156,146.5C 156.578,150.168 156.411,153.834 155.5,157.5C 154.914,157.291 154.414,156.957 154,156.5C 153.498,153.487 152.998,150.487 152.5,147.5C 151.632,145.598 150.632,143.765 149.5,142C 151.175,139.315 153.508,137.315 156.5,136C 161.167,135.667 165.833,135.333 170.5,135C 172.15,132.187 174.15,129.687 176.5,127.5C 181.188,131.022 182.688,135.689 181,141.5C 180.209,142.745 179.709,144.078 179.5,145.5 Z"/></g>
<g><path style="opacity:1" fill="#c8805e" d="M 51.5,145.5 C 49.877,148.215 49.2104,151.215 49.5,154.5C 47.7376,154.643 46.0709,154.309 44.5,153.5C 43.6667,154.5 42.8333,155.5 42,156.5C 40.141,152.288 37.8076,148.288 35,144.5C 31.412,147.141 27.412,148.808 23,149.5C 22.5172,148.552 22.3505,147.552 22.5,146.5C 26.6843,135.078 34.351,131.911 45.5,137C 48.5231,139.177 50.5231,142.011 51.5,145.5 Z"/></g>
<g><path style="opacity:1" fill="#7a9cb1" d="M 32.5,139.5 C 38.5788,138.592 43.9121,140.092 48.5,144C 44.5633,143.524 40.5633,143.024 36.5,142.5C 33.3337,142.449 30.3337,143.116 27.5,144.5C 27.1667,144.333 26.8333,144.167 26.5,144C 28.3893,142.236 30.3893,140.736 32.5,139.5 Z"/></g>
<g><path style="opacity:1" fill="#f2caa6" d="M 51.5,145.5 C 52.7874,146.528 53.9541,146.195 55,144.5C 57.5346,144.765 59.3679,145.931 60.5,148C 58.9005,151.693 57.2339,155.193 55.5,158.5C 54.5178,157.859 53.5178,157.193 52.5,156.5C 48.6481,160.186 44.6481,163.686 40.5,167C 38.9751,168.009 37.3084,168.509 35.5,168.5C 31.2309,165.302 27.3976,161.635 24,157.5C 23.5065,159.134 23.3398,160.801 23.5,162.5C 21.6895,157.221 21.3562,151.888 22.5,146.5C 22.3505,147.552 22.5172,148.552 23,149.5C 27.412,148.808 31.412,147.141 35,144.5C 37.8076,148.288 40.141,152.288 42,156.5C 42.8333,155.5 43.6667,154.5 44.5,153.5C 46.0709,154.309 47.7376,154.643 49.5,154.5C 49.2104,151.215 49.877,148.215 51.5,145.5 Z"/></g>
<g><path style="opacity:1" fill="#f3cda9" d="M 179.5,145.5 C 179.511,148.001 180.178,148.168 181.5,146C 185.641,144.736 188.308,146.07 189.5,150C 188.964,153.072 187.63,155.739 185.5,158C 182.635,158.183 179.969,158.683 177.5,159.5C 176.733,160.172 176.066,161.005 175.5,162C 171.727,162.012 168.394,163.179 165.5,165.5C 163.49,163.829 161.157,163.162 158.5,163.5C 158.167,163.5 157.833,163.5 157.5,163.5C 156.167,162.5 154.833,161.5 153.5,160.5C 147.566,160.577 144.232,157.244 143.5,150.5C 143.148,148.076 144.148,146.576 146.5,146C 148.689,145.678 150.689,146.178 152.5,147.5C 152.998,150.487 153.498,153.487 154,156.5C 154.414,156.957 154.914,157.291 155.5,157.5C 156.411,153.834 156.578,150.168 156,146.5C 157.734,147.249 159.567,147.749 161.5,148C 160.234,148.309 159.067,148.809 158,149.5C 157.409,150.483 157.743,151.15 159,151.5C 161.731,150.762 163.898,149.262 165.5,147C 168.777,145.857 172.11,145.023 175.5,144.5C 175.5,148.167 175.5,151.833 175.5,155.5C 176.5,155.5 177.5,155.5 178.5,155.5C 178.187,151.958 178.521,148.625 179.5,145.5 Z"/></g>
<g><path style="opacity:1" fill="#c7896b" d="M 168.5,149.5 C 170.288,149.215 171.955,149.548 173.5,150.5C 172.248,152.001 171.248,153.668 170.5,155.5C 169.523,153.589 168.857,151.589 168.5,149.5 Z"/></g>
<g><path style="opacity:1" fill="#48ab72" d="M 153.5,160.5 C 154.833,161.5 156.167,162.5 157.5,163.5C 157.204,165.403 156.537,167.07 155.5,168.5C 154.22,167.069 152.553,166.402 150.5,166.5C 150.615,164.053 151.615,162.053 153.5,160.5 Z"/></g>
<g><path style="opacity:1" fill="#ad7c5a" d="M 157.5,163.5 C 157.833,163.5 158.167,163.5 158.5,163.5C 159.11,164.391 159.443,165.391 159.5,166.5C 159.741,169.034 158.741,170.7 156.5,171.5C 155.596,170.791 155.263,169.791 155.5,168.5C 156.537,167.07 157.204,165.403 157.5,163.5 Z"/></g>
<g><path style="opacity:1" fill="#33975e" d="M 177.5,159.5 C 179.729,160.055 181.395,161.389 182.5,163.5C 180.155,164.852 177.822,166.185 175.5,167.5C 175.042,164.691 173.709,164.024 171.5,165.5C 167.357,166.443 163.357,166.776 159.5,166.5C 159.443,165.391 159.11,164.391 158.5,163.5C 161.157,163.162 163.49,163.829 165.5,165.5C 168.394,163.179 171.727,162.012 175.5,162C 176.066,161.005 176.733,160.172 177.5,159.5 Z"/></g>
<g><path style="opacity:1" fill="#75a2bc" d="M 55.5,158.5 C 54.4707,161.891 52.4707,164.557 49.5,166.5C 47.2273,166.957 45.894,168.29 45.5,170.5C 45.5,171.5 45.5,172.5 45.5,173.5C 45.631,174.239 45.4643,174.906 45,175.5C 41.369,173.689 38.2024,171.356 35.5,168.5C 37.3084,168.509 38.9751,168.009 40.5,167C 44.6481,163.686 48.6481,160.186 52.5,156.5C 53.5178,157.193 54.5178,157.859 55.5,158.5 Z"/></g>
<g><path style="opacity:1" fill="#b08a79" d="M 49.5,166.5 C 49.1667,168.833 47.8333,170.167 45.5,170.5C 45.894,168.29 47.2273,166.957 49.5,166.5 Z"/></g>
<g><path style="opacity:1" fill="#ab7958" d="M 175.5,167.5 C 175.768,169.099 175.434,170.432 174.5,171.5C 173.13,169.75 172.13,167.75 171.5,165.5C 173.709,164.024 175.042,164.691 175.5,167.5 Z"/></g>
<g><path style="opacity:1" fill="#40b776" d="M 171.5,165.5 C 172.13,167.75 173.13,169.75 174.5,171.5C 174.5,171.833 174.5,172.167 174.5,172.5C 168.5,172.5 162.5,172.5 156.5,172.5C 156.5,172.167 156.5,171.833 156.5,171.5C 158.741,170.7 159.741,169.034 159.5,166.5C 163.357,166.776 167.357,166.443 171.5,165.5 Z"/></g>
<g><path style="opacity:1" fill="#75a1bb" d="M 30.5,177.5 C 28.8397,171.922 26.0064,171.255 22,175.5C 21.6174,174.944 21.1174,174.611 20.5,174.5C 19.4884,173.128 18.4884,171.795 17.5,170.5C 19.5664,168.801 21.8997,167.468 24.5,166.5C 25.4232,165.697 26.4232,165.53 27.5,166C 30.916,170.087 34.916,173.42 39.5,176C 36.5219,176.696 33.5219,177.196 30.5,177.5 Z"/></g>
<g><path style="opacity:1" fill="#f2cdab" d="M 17.5,170.5 C 18.4884,171.795 19.4884,173.128 20.5,174.5C 22.7911,179.441 21.4577,182.774 16.5,184.5C 12.986,183.503 11.8193,181.17 13,177.5C 14.5106,175.138 16.0106,172.805 17.5,170.5 Z"/></g>
<g><path style="opacity:1" fill="#b77e5b" d="M 156.5,172.5 C 162.5,172.5 168.5,172.5 174.5,172.5C 174.5,173.5 174.5,174.5 174.5,175.5C 168.5,175.5 162.5,175.5 156.5,175.5C 156.5,174.5 156.5,173.5 156.5,172.5 Z"/></g>
<g><path style="opacity:1" fill="#eba266" d="M 46.5,173.5 C 49.1473,173.929 51.1473,175.262 52.5,177.5C 51.4863,178.674 50.153,179.34 48.5,179.5C 46.9261,177.898 46.2594,175.898 46.5,173.5 Z"/></g>
<g><path style="opacity:1" fill="#df975a" d="M 156.5,175.5 C 162.5,175.5 168.5,175.5 174.5,175.5C 175.638,178.304 175.805,181.304 175,184.5C 174.617,185.056 174.117,185.389 173.5,185.5C 171.589,184.925 169.922,183.925 168.5,182.5C 169.234,181.292 169.567,179.959 169.5,178.5C 167.143,178.337 164.81,178.503 162.5,179C 161.62,180.356 161.286,181.856 161.5,183.5C 159.5,183.833 157.5,184.167 155.5,184.5C 155.5,182.5 155.5,180.5 155.5,178.5C 155.557,177.391 155.89,176.391 156.5,175.5 Z"/></g>
<g><path style="opacity:1" fill="#b77758" d="M 35.5,168.5 C 38.2024,171.356 41.369,173.689 45,175.5C 45.4643,174.906 45.631,174.239 45.5,173.5C 45.8333,173.5 46.1667,173.5 46.5,173.5C 46.2594,175.898 46.9261,177.898 48.5,179.5C 48.5,180.5 48.5,181.5 48.5,182.5C 46.8007,182.473 45.4674,181.806 44.5,180.5C 44.38,179.414 43.7133,178.747 42.5,178.5C 38.5046,179.261 34.5046,179.928 30.5,180.5C 30.5,179.5 30.5,178.5 30.5,177.5C 33.5219,177.196 36.5219,176.696 39.5,176C 34.916,173.42 30.916,170.087 27.5,166C 26.4232,165.53 25.4232,165.697 24.5,166.5C 23.7659,165.292 23.4326,163.959 23.5,162.5C 23.3398,160.801 23.5065,159.134 24,157.5C 27.3976,161.635 31.2309,165.302 35.5,168.5 Z"/></g>
<g><path style="opacity:1" fill="#f9d0ab" d="M 52.5,177.5 C 53.6737,178.514 54.3404,179.847 54.5,181.5C 52.5,181.833 50.5,182.167 48.5,182.5C 48.5,181.5 48.5,180.5 48.5,179.5C 50.153,179.34 51.4863,178.674 52.5,177.5 Z"/></g>
<g><path style="opacity:1" fill="#de985e" d="M 44.5,180.5 C 42.4727,180.338 40.4727,180.505 38.5,181C 37.9152,182.302 37.2485,183.469 36.5,184.5C 34.8333,184.5 33.1667,184.5 31.5,184.5C 31.5674,183.041 31.2341,181.708 30.5,180.5C 34.5046,179.928 38.5046,179.261 42.5,178.5C 43.7133,178.747 44.38,179.414 44.5,180.5 Z"/></g>
<g><path style="opacity:1" fill="#f6cca5" d="M 31.5,184.5 C 33.1667,184.5 34.8333,184.5 36.5,184.5C 36.5,185.5 36.5,186.5 36.5,187.5C 34.8333,187.5 33.1667,187.5 31.5,187.5C 31.5,186.5 31.5,185.5 31.5,184.5 Z"/></g>
<g><path style="opacity:1" fill="#ab7054" d="M 54.5,181.5 C 55.4787,183.145 56.812,184.479 58.5,185.5C 55.2937,186.808 51.9604,187.475 48.5,187.5C 48.5,185.833 48.5,184.167 48.5,182.5C 50.5,182.167 52.5,181.833 54.5,181.5 Z"/></g>
<g><path style="opacity:1" fill="#b37a5d" d="M 155.5,178.5 C 155.5,180.5 155.5,182.5 155.5,184.5C 157.5,184.167 159.5,183.833 161.5,183.5C 163.104,184.287 163.771,185.62 163.5,187.5C 160.538,188.061 157.705,189.061 155,190.5C 154.5,190.167 154,189.833 153.5,189.5C 154.104,185.697 154.77,182.031 155.5,178.5 Z"/></g>
<g><path style="opacity:1" fill="#af7356" d="M 168.5,182.5 C 169.922,183.925 171.589,184.925 173.5,185.5C 173.799,187.604 173.466,189.604 172.5,191.5C 170.016,189.517 167.683,187.35 165.5,185C 166.373,183.955 167.373,183.122 168.5,182.5 Z"/></g>
<g><path style="opacity:1" fill="#b88064" d="M 31.5,187.5 C 33.1667,187.5 34.8333,187.5 36.5,187.5C 36.5,188.5 36.5,189.5 36.5,190.5C 37.5,190.5 38.5,190.5 39.5,190.5C 39.5,191.5 39.5,192.5 39.5,193.5C 36.5,193.5 33.5,193.5 30.5,193.5C 30.2053,191.265 30.5386,189.265 31.5,187.5 Z"/></g>
</svg>
