<?xml version="1.0" encoding="UTF-8"?>
<!DOCTYPE svg PUBLIC "-//W3C//DTD SVG 1.1//EN" "http://www.w3.org/Graphics/SVG/1.1/DTD/svg11.dtd">
<svg xmlns="http://www.w3.org/2000/svg" version="1.1" width="512px" height="512px" style="shape-rendering:geometricPrecision; text-rendering:geometricPrecision; image-rendering:optimizeQuality; fill-rule:evenodd; clip-rule:evenodd" xmlns:xlink="http://www.w3.org/1999/xlink">
<g><path style="opacity:0.988" fill="#000000" d="M 511.5,258.5 C 511.5,274.833 511.5,291.167 511.5,307.5C 509.205,379.968 474.205,428.801 406.5,454C 358.855,467.984 310.188,474.151 260.5,472.5C 217.393,473.35 174.726,469.517 132.5,461C 103.626,453.61 76.9598,441.61 52.5,425C 29.6263,405.77 14.4597,381.603 7,352.5C 3.61116,337.5 1.11116,322.5 -0.5,307.5C -0.5,291.5 -0.5,275.5 -0.5,259.5C 3.0738,221.275 16.7405,187.108 40.5,157C 28.2122,116.586 30.5455,77.0855 47.5,38.5C 68.0245,38.0383 87.6912,41.8717 106.5,50C 127.708,61.0586 147.708,73.892 166.5,88.5C 225.94,74.5654 285.44,74.232 345,87.5C 363.756,73.4343 383.59,60.9343 404.5,50C 422.983,41.8367 442.316,38.1701 462.5,39C 476.463,66.9478 481.297,96.4478 477,127.5C 475.727,137.533 473.56,147.366 470.5,157C 494.053,186.821 507.719,220.655 511.5,258.5 Z M 135.5,246.5 C 147.194,246.349 158.861,246.849 170.5,248C 189.8,250.614 209.133,252.948 228.5,255C 246.5,255.667 264.5,255.667 282.5,255C 309.61,251.549 336.776,248.715 364,246.5C 402.263,248.317 426.93,267.65 438,304.5C 446.889,338.835 441.223,370.501 421,399.5C 408.933,413.454 394.1,423.287 376.5,429C 351.219,437.589 325.219,441.923 298.5,442C 263.819,442.86 229.152,442.527 194.5,441C 170.292,439.448 146.959,434.114 124.5,425C 98.0393,413.206 80.8726,393.373 73,365.5C 63.735,330.83 69.735,299.163 91,270.5C 103.137,257.35 117.971,249.35 135.5,246.5 Z"/></g>
<g><path style="opacity:0.975" fill="#000000" d="M 153.5,274.5 C 167.207,274.269 177.707,279.936 185,291.5C 197.151,313.312 199.818,336.312 193,360.5C 189.198,371.947 182.698,381.447 173.5,389C 155.993,397.829 141.493,394.329 130,378.5C 116.938,356.529 113.938,333.195 121,308.5C 124.436,297.791 130.269,288.625 138.5,281C 143.142,277.74 148.142,275.573 153.5,274.5 Z"/></g>
<g><path style="opacity:0.975" fill="#000000" d="M 350.5,274.5 C 363.682,274.174 373.849,279.507 381,290.5C 394.035,312.075 397.035,335.075 390,359.5C 385.794,375.358 376.294,386.525 361.5,393C 346.893,395.444 335.393,390.61 327,378.5C 314.367,357.983 311.033,335.983 317,312.5C 320.208,300.249 326.375,289.749 335.5,281C 340.142,277.74 345.142,275.573 350.5,274.5 Z"/></g>
</svg>
