<?xml version="1.0" encoding="UTF-8"?>
<!DOCTYPE svg PUBLIC "-//W3C//DTD SVG 1.1//EN" "http://www.w3.org/Graphics/SVG/1.1/DTD/svg11.dtd">
<svg xmlns="http://www.w3.org/2000/svg" version="1.1" width="512px" height="512px" style="shape-rendering:geometricPrecision; text-rendering:geometricPrecision; image-rendering:optimizeQuality; fill-rule:evenodd; clip-rule:evenodd" xmlns:xlink="http://www.w3.org/1999/xlink">
<g><path style="opacity:1" fill="#fefefe" d="M -0.5,-0.5 C 170.167,-0.5 340.833,-0.5 511.5,-0.5C 511.5,86.5 511.5,173.5 511.5,260.5C 507.609,221.887 493.609,187.387 469.5,157C 478.696,127.129 479.863,96.9628 473,66.5C 470.452,57.5199 467.118,48.8532 463,40.5C 442.255,38.4183 422.421,41.9183 403.5,51C 383.815,61.0336 365.482,73.0336 348.5,87C 345.5,87.6667 342.5,87.6667 339.5,87C 281.889,75.2631 224.389,75.7631 167,88.5C 165.833,88.3333 164.667,88.1667 163.5,88C 145.363,73.0897 125.697,60.423 104.5,50C 86.6496,42.164 67.9829,38.8307 48.5,40C 35.5208,65.2993 30.6875,92.1327 34,120.5C 35.1568,133.118 37.6568,145.451 41.5,157.5C 17.2493,187.666 3.24926,222 -0.5,260.5C -0.5,173.5 -0.5,86.5 -0.5,-0.5 Z"/></g>
<g><path style="opacity:1" fill="#010101" d="M 511.5,260.5 C 511.5,272.5 511.5,284.5 511.5,296.5C 510.679,385.971 466.679,440.805 379.5,461C 340.758,469.239 301.591,472.739 262,471.5C 223.599,472.409 185.432,469.909 147.5,464C 117.759,457.792 89.7586,447.125 63.5,432C 34.4363,412.076 15.603,384.909 7,350.5C 5.44075,341.478 3.77408,332.478 2,323.5C 1.16379,314.347 0.33046,305.347 -0.5,296.5C -0.5,284.5 -0.5,272.5 -0.5,260.5C 3.24926,222 17.2493,187.666 41.5,157.5C 37.6568,145.451 35.1568,133.118 34,120.5C 30.6875,92.1327 35.5208,65.2993 48.5,40C 67.9829,38.8307 86.6496,42.164 104.5,50C 125.697,60.423 145.363,73.0897 163.5,88C 164.667,88.1667 165.833,88.3333 167,88.5C 224.389,75.7631 281.889,75.2631 339.5,87C 342.5,87.6667 345.5,87.6667 348.5,87C 365.482,73.0336 383.815,61.0336 403.5,51C 422.421,41.9183 442.255,38.4183 463,40.5C 467.118,48.8532 470.452,57.5199 473,66.5C 479.863,96.9628 478.696,127.129 469.5,157C 493.609,187.387 507.609,221.887 511.5,260.5 Z"/></g>
<g><path style="opacity:1" fill="#fdfdfd" d="M 315.5,441.5 C 312.941,441.802 310.607,441.468 308.5,440.5C 310.474,438.572 311.974,436.239 313,433.5C 313.667,425.167 313.667,416.833 313,408.5C 306.372,392.515 296.538,378.681 283.5,367C 246.126,349.679 219.959,360.179 205,398.5C 202.348,409.715 201.014,421.049 201,432.5C 206.142,441.284 212.808,442.618 221,436.5C 221.862,434.913 222.529,433.246 223,431.5C 223.333,424.5 223.667,417.5 224,410.5C 224.942,407.007 226.275,403.674 228,400.5C 233.125,393.707 238.625,387.207 244.5,381C 260.041,379.675 272.875,385.175 283,397.5C 285.527,401.221 287.527,405.221 289,409.5C 289.333,417.5 289.667,425.5 290,433.5C 290.73,437.896 293.23,440.73 297.5,442C 259.485,442.891 221.485,442.558 183.5,441C 154.115,438.206 127.115,428.873 102.5,413C 79.5447,392.155 68.2114,366.155 68.5,335C 67.7901,301.086 81.1234,274.419 108.5,255C 122.859,247.091 138.192,244.091 154.5,246C 177.226,248.174 199.893,250.841 222.5,254C 262.431,256.412 302.097,254.079 341.5,247C 398.879,239.721 432.379,264.554 442,321.5C 445.326,386.64 414.826,425.14 350.5,437C 338.924,439.239 327.257,440.739 315.5,441.5 Z"/></g>
<g><path style="opacity:1" fill="#010101" d="M 149.5,275.5 C 162.856,273.671 173.689,278.005 182,288.5C 200.889,318.283 201.223,348.283 183,378.5C 168.566,396.21 152.566,397.876 135,383.5C 123.646,369.446 117.813,353.279 117.5,335C 117.036,313.706 124.369,295.706 139.5,281C 142.767,278.871 146.101,277.038 149.5,275.5 Z"/></g>
<g><path style="opacity:1" fill="#010101" d="M 346.5,275.5 C 362.715,274.025 374.882,280.358 383,294.5C 397.798,323.111 396.798,351.111 380,378.5C 364.95,396.639 348.617,397.973 331,382.5C 316.25,362.024 311.583,339.358 317,314.5C 320.744,296.626 330.577,283.626 346.5,275.5 Z"/></g>
<g><path style="opacity:1" fill="#fefefe" d="M -0.5,296.5 C 0.33046,305.347 1.16379,314.347 2,323.5C 3.77408,332.478 5.44075,341.478 7,350.5C 15.603,384.909 34.4363,412.076 63.5,432C 89.7586,447.125 117.759,457.792 147.5,464C 185.432,469.909 223.599,472.409 262,471.5C 301.591,472.739 340.758,469.239 379.5,461C 466.679,440.805 510.679,385.971 511.5,296.5C 511.5,368.167 511.5,439.833 511.5,511.5C 340.833,511.5 170.167,511.5 -0.5,511.5C -0.5,439.833 -0.5,368.167 -0.5,296.5 Z"/></g>
<g><path style="opacity:1" fill="#545454" d="M 308.5,440.5 C 310.607,441.468 312.941,441.802 315.5,441.5C 312.36,442.641 309.027,442.808 305.5,442C 306.527,441.487 307.527,440.987 308.5,440.5 Z"/></g>
</svg>
