<?xml version="1.0" encoding="UTF-8"?>
<!DOCTYPE svg PUBLIC "-//W3C//DTD SVG 1.1//EN" "http://www.w3.org/Graphics/SVG/1.1/DTD/svg11.dtd">
<svg xmlns="http://www.w3.org/2000/svg" version="1.1" width="512px" height="512px" style="shape-rendering:geometricPrecision; text-rendering:geometricPrecision; image-rendering:optimizeQuality; fill-rule:evenodd; clip-rule:evenodd" xmlns:xlink="http://www.w3.org/1999/xlink">
<g><path style="opacity:0.967" fill="#ff9d04" d="M 251.5,-0.5 C 254.167,-0.5 256.833,-0.5 259.5,-0.5C 260.458,0.961599 261.624,2.29493 263,3.5C 263.667,22.1667 263.667,40.8333 263,59.5C 258.48,65.7041 253.48,66.0374 248,60.5C 247.333,41.5 247.333,22.5 248,3.5C 248.69,1.64977 249.856,0.316435 251.5,-0.5 Z"/></g>
<g><path style="opacity:0.957" fill="#ff9d04" d="M 127.5,32.5 C 133.392,31.0733 137.559,33.0733 140,38.5C 147.667,51.8333 155.333,65.1667 163,78.5C 165.167,88.3333 161.333,92.1667 151.5,90C 149.321,88.1518 147.487,85.9852 146,83.5C 138.92,70.338 131.587,57.338 124,44.5C 122.593,39.556 123.759,35.556 127.5,32.5 Z"/></g>
<g><path style="opacity:0.961" fill="#ff9d04" d="M 375.5,32.5 C 384.657,31.4892 388.49,35.4892 387,44.5C 378.21,59.9159 369.044,75.0826 359.5,90C 350.903,92.3872 346.736,89.2206 347,80.5C 355.756,63.977 365.256,47.977 375.5,32.5 Z"/></g>
<g><path style="opacity:0.996" fill="#ffc107" d="M 241.5,88.5 C 310.637,85.8119 363.471,113.479 400,171.5C 429.592,226.665 429.925,281.999 401,337.5C 360.753,401.369 302.92,428.869 227.5,420C 170.907,408.979 129.74,377.812 104,326.5C 81.9327,275.05 83.5994,224.384 109,174.5C 138.81,123.881 182.976,95.2141 241.5,88.5 Z"/></g>
<g><path style="opacity:0.962" fill="#ff9d04" d="M 36.5,123.5 C 39.1873,123.336 41.854,123.503 44.5,124C 58.5,132 72.5,140 86.5,148C 90.3281,151.264 91.4947,155.431 90,160.5C 86.6004,163.866 82.767,164.7 78.5,163C 63.0841,154.21 47.9174,145.044 33,135.5C 31.5927,130.556 32.7593,126.556 36.5,123.5 Z"/></g>
<g><path style="opacity:0.96" fill="#ff9d04" d="M 466.5,123.5 C 475.108,122.276 478.941,125.943 478,134.5C 477.215,136.286 476.049,137.786 474.5,139C 459.296,147.768 443.963,156.268 428.5,164.5C 420.939,163.245 418.439,158.912 421,151.5C 421.374,150.584 421.874,149.75 422.5,149C 437.393,140.726 452.06,132.226 466.5,123.5 Z"/></g>
<g><path style="opacity:1" fill="#fffefe" d="M 251.5,161.5 C 255.516,160.9 259.016,161.9 262,164.5C 272.106,180.936 282.606,197.103 293.5,213C 312.167,218 330.833,223 349.5,228C 354.434,230.665 355.601,234.498 353,239.5C 341,254.167 329,268.833 317,283.5C 317.363,302.34 318.196,321.173 319.5,340C 318.805,349.336 314.139,352.003 305.5,348C 288.824,341.108 271.99,334.608 255,328.5C 237.556,335.472 220.056,342.305 202.5,349C 197.572,350.643 194.072,349.143 192,344.5C 192.628,324.165 193.294,303.831 194,283.5C 181.287,268.456 168.954,253.122 157,237.5C 155.981,232.04 158.147,228.54 163.5,227C 181.5,222.333 199.5,217.667 217.5,213C 228.968,195.891 240.301,178.724 251.5,161.5 Z"/></g>
<g><path style="opacity:0.966" fill="#ff9d04" d="M -0.5,259.5 C -0.5,256.833 -0.5,254.167 -0.5,251.5C 0.316435,249.856 1.64977,248.69 3.5,248C 22.1667,247.333 40.8333,247.333 59.5,248C 64.2988,251.071 65.4655,255.238 63,260.5C 62.0975,261.701 60.9308,262.535 59.5,263C 40.8333,263.667 22.1667,263.667 3.5,263C 2.29493,261.624 0.961599,260.458 -0.5,259.5 Z"/></g>
<g><path style="opacity:0.966" fill="#ff9d04" d="M 511.5,251.5 C 511.5,254.167 511.5,256.833 511.5,259.5C 510.038,260.458 508.705,261.624 507.5,263C 488.833,263.667 470.167,263.667 451.5,263C 445.253,258.486 444.92,253.486 450.5,248C 469.5,247.333 488.5,247.333 507.5,248C 509.35,248.69 510.684,249.856 511.5,251.5 Z"/></g>
<g><path style="opacity:0.961" fill="#ff9d04" d="M 426.5,346.5 C 430.105,346.799 433.439,347.965 436.5,350C 449.167,357.333 461.833,364.667 474.5,372C 479.833,377 479.833,382 474.5,387C 471.833,387.667 469.167,387.667 466.5,387C 452.167,378.667 437.833,370.333 423.5,362C 420.572,358.743 419.738,354.909 421,350.5C 422.5,348.531 424.333,347.198 426.5,346.5 Z"/></g>
<g><path style="opacity:0.963" fill="#ff9d04" d="M 80.5,346.5 C 89.2128,346.719 92.3795,351.052 90,359.5C 88.8333,360.667 87.6667,361.833 86.5,363C 72.5,371 58.5,379 44.5,387C 35.3333,388.5 31.5,384.667 33,375.5C 48.4802,365.18 64.3135,355.514 80.5,346.5 Z"/></g>
<g><path style="opacity:0.963" fill="#ff9d04" d="M 154.5,419.5 C 162.295,420.399 165.129,424.732 163,432.5C 154.667,446.833 146.333,461.167 138,475.5C 132.967,479.779 128.3,479.446 124,474.5C 123.333,471.833 123.333,469.167 124,466.5C 132.333,451.833 140.667,437.167 149,422.5C 150.876,421.391 152.709,420.391 154.5,419.5 Z"/></g>
<g><path style="opacity:0.958" fill="#ff9d04" d="M 350.5,420.5 C 355.535,419.502 359.702,420.835 363,424.5C 370.267,438.091 377.934,451.425 386,464.5C 389.736,474.079 386.569,478.579 376.5,478C 375.069,477.535 373.903,476.701 373,475.5C 363.644,460.12 354.81,444.453 346.5,428.5C 346.892,425.299 348.226,422.633 350.5,420.5 Z"/></g>
<g><path style="opacity:0.964" fill="#ff9d04" d="M 259.5,511.5 C 256.833,511.5 254.167,511.5 251.5,511.5C 249.856,510.684 248.69,509.35 248,507.5C 247.333,488.5 247.333,469.5 248,450.5C 253.486,444.92 258.486,445.253 263,451.5C 263.667,470.167 263.667,488.833 263,507.5C 261.624,508.705 260.458,510.038 259.5,511.5 Z"/></g>
</svg>
