<?xml version="1.0" encoding="UTF-8"?>
<!DOCTYPE svg PUBLIC "-//W3C//DTD SVG 1.1//EN" "http://www.w3.org/Graphics/SVG/1.1/DTD/svg11.dtd">
<svg xmlns="http://www.w3.org/2000/svg" version="1.1" width="512px" height="512px" style="shape-rendering:geometricPrecision; text-rendering:geometricPrecision; image-rendering:optimizeQuality; fill-rule:evenodd; clip-rule:evenodd" xmlns:xlink="http://www.w3.org/1999/xlink">
<g><path style="opacity:0.997" fill="#2c3a47" d="M 50.5,-0.5 C 187.167,-0.5 323.833,-0.5 460.5,-0.5C 463.504,4.33766 465.837,9.50433 467.5,15C 489.071,11.6023 503.738,19.7689 511.5,39.5C 511.5,44.8333 511.5,50.1667 511.5,55.5C 503.738,75.2311 489.071,83.3977 467.5,80C 465.89,84.8308 463.89,89.4975 461.5,94C 451.605,95.4495 441.605,95.9495 431.5,95.5C 431.667,114.17 431.5,132.836 431,151.5C 429.777,155.615 427.777,159.282 425,162.5C 419.333,168.167 413.667,173.833 408,179.5C 407.333,182.167 407.333,184.833 408,187.5C 414,193.5 420,199.5 426,205.5C 428.194,208.554 429.861,211.888 431,215.5C 431.5,282.166 431.667,348.833 431.5,415.5C 441.172,415.334 450.839,415.5 460.5,416C 463.602,420.636 465.935,425.636 467.5,431C 489.071,427.602 503.738,435.769 511.5,455.5C 511.5,460.833 511.5,466.167 511.5,471.5C 503.738,491.231 489.071,499.398 467.5,496C 465.867,500.563 464.033,505.063 462,509.5C 461.005,510.066 460.172,510.733 459.5,511.5C 323.167,511.5 186.833,511.5 50.5,511.5C 47.496,506.662 45.1627,501.496 43.5,496C 21.9291,499.398 7.26247,491.231 -0.5,471.5C -0.5,466.167 -0.5,460.833 -0.5,455.5C 2.98533,443.182 10.9853,435.349 23.5,432C 30.1667,431.667 36.8333,431.333 43.5,431C 45.0676,425.625 47.4009,420.625 50.5,416C 60.1609,415.5 69.8276,415.334 79.5,415.5C 79.3333,348.499 79.5,281.499 80,214.5C 81.4131,211.339 83.0797,208.339 85,205.5C 90.6667,199.833 96.3333,194.167 102,188.5C 103.457,185.634 103.79,182.634 103,179.5C 97,173.5 91,167.5 85,161.5C 82.8061,158.446 81.1395,155.112 80,151.5C 79.5001,132.836 79.3334,114.17 79.5,95.5C 69.8276,95.6665 60.1609,95.4998 50.5,95C 47.3984,90.3635 45.0651,85.3635 43.5,80C 21.9291,83.3977 7.26247,75.2311 -0.5,55.5C -0.5,50.1667 -0.5,44.8333 -0.5,39.5C 2.98533,27.1824 10.9853,19.349 23.5,16C 30.1667,15.6667 36.8333,15.3333 43.5,15C 45.1653,9.49285 47.4986,4.32618 50.5,-0.5 Z"/></g>
<g><path style="opacity:1" fill="#d4a644" d="M 103.5,27.5 C 88.1667,27.5 72.8333,27.5 57.5,27.5C 58.8094,23.5957 59.8094,19.5957 60.5,15.5C 74.8333,15.5 89.1667,15.5 103.5,15.5C 103.5,19.5 103.5,23.5 103.5,27.5 Z"/></g>
<g><path style="opacity:1" fill="#e2774f" d="M 151.5,27.5 C 140.833,27.5 130.167,27.5 119.5,27.5C 119.5,23.5 119.5,19.5 119.5,15.5C 130.167,15.5 140.833,15.5 151.5,15.5C 151.5,19.5 151.5,23.5 151.5,27.5 Z"/></g>
<g><path style="opacity:1" fill="#d4a743" d="M 335.5,27.5 C 279.5,27.5 223.5,27.5 167.5,27.5C 167.5,23.5 167.5,19.5 167.5,15.5C 223.5,15.5 279.5,15.5 335.5,15.5C 335.5,19.5 335.5,23.5 335.5,27.5 Z"/></g>
<g><path style="opacity:1" fill="#e2774f" d="M 383.5,27.5 C 372.833,27.5 362.167,27.5 351.5,27.5C 351.5,23.5 351.5,19.5 351.5,15.5C 362.167,15.5 372.833,15.5 383.5,15.5C 383.5,19.5 383.5,23.5 383.5,27.5 Z"/></g>
<g><path style="opacity:1" fill="#d4a644" d="M 452.5,27.5 C 434.833,27.5 417.167,27.5 399.5,27.5C 399.5,23.5 399.5,19.5 399.5,15.5C 416.5,15.5 433.5,15.5 450.5,15.5C 451.486,19.4432 452.152,23.4432 452.5,27.5 Z"/></g>
<g><path style="opacity:1" fill="#e9b443" d="M 57.5,27.5 C 72.8333,27.5 88.1667,27.5 103.5,27.5C 103.638,48.1589 113.805,60.1589 134,63.5C 156.301,61.9155 167.468,49.9155 167.5,27.5C 223.5,27.5 279.5,27.5 335.5,27.5C 335.638,48.1589 345.805,60.1589 366,63.5C 388.301,61.9155 399.468,49.9155 399.5,27.5C 417.167,27.5 434.833,27.5 452.5,27.5C 453.302,28.9516 453.802,30.6183 454,32.5C 454.667,42.1667 454.667,51.8333 454,61.5C 452.511,67.4529 451.344,73.4529 450.5,79.5C 320.5,79.5 190.5,79.5 60.5,79.5C 58.464,70.9516 56.964,62.2849 56,53.5C 55.0857,44.6988 55.5857,36.0322 57.5,27.5 Z"/></g>
<g><path style="opacity:1" fill="#f57d50" d="M 119.5,27.5 C 130.167,27.5 140.833,27.5 151.5,27.5C 151.699,41.8021 144.699,48.3021 130.5,47C 122.377,43.0376 118.711,36.5376 119.5,27.5 Z"/></g>
<g><path style="opacity:1" fill="#f57d50" d="M 351.5,27.5 C 362.167,27.5 372.833,27.5 383.5,27.5C 383.699,41.8021 376.699,48.3021 362.5,47C 354.377,43.0376 350.711,36.5376 351.5,27.5 Z"/></g>
<g><path style="opacity:1" fill="#f67e50" d="M 26.5,31.5 C 31.1667,31.5 35.8333,31.5 40.5,31.5C 39.2402,42.1622 39.2402,52.8289 40.5,63.5C 23.6876,66.1716 15.521,59.1716 16,42.5C 18.3566,37.6455 21.8566,33.9788 26.5,31.5 Z"/></g>
<g><path style="opacity:1" fill="#f47d50" d="M 470.5,31.5 C 479.399,29.7381 486.899,32.0714 493,38.5C 497.136,47.1242 495.636,54.6242 488.5,61C 482.732,63.228 476.732,64.0614 470.5,63.5C 470.5,52.8333 470.5,42.1667 470.5,31.5 Z"/></g>
<g><path style="opacity:1" fill="#e3deae" d="M 415.5,111.5 C 308.833,111.5 202.167,111.5 95.5,111.5C 95.5,106.167 95.5,100.833 95.5,95.5C 202.167,95.5 308.833,95.5 415.5,95.5C 415.5,100.833 415.5,106.167 415.5,111.5 Z"/></g>
<g><path style="opacity:1" fill="#f7eeb9" d="M 95.5,111.5 C 202.167,111.5 308.833,111.5 415.5,111.5C 415.941,124.241 415.441,136.908 414,149.5C 406.262,156.568 399.262,164.234 393,172.5C 388.812,182.614 390.145,191.947 397,200.5C 403.366,206.531 409.366,212.864 415,219.5C 415.5,279.499 415.667,339.499 415.5,399.5C 308.833,399.5 202.167,399.5 95.5,399.5C 95.3333,339.166 95.5,278.832 96,218.5C 102,212.5 108,206.5 114,200.5C 122.66,189.128 122.66,177.794 114,166.5C 108.333,160.833 102.667,155.167 97,149.5C 95.5589,136.908 95.0589,124.241 95.5,111.5 Z"/></g>
<g><path style="opacity:1" fill="#2e3b47" d="M 251.5,127.5 C 254.649,127.211 257.649,127.711 260.5,129C 266.124,137.08 271.624,145.247 277,153.5C 277.745,154.99 278.912,155.99 280.5,156.5C 290.162,152.336 299.828,148.17 309.5,144C 315.346,143.082 319.012,145.415 320.5,151C 315.412,173.851 310.246,196.684 305,219.5C 304.167,220.333 303.333,221.167 302.5,222C 271.919,223.651 241.253,223.984 210.5,223C 209.5,222.167 208.5,221.333 207.5,220.5C 202.132,199.294 197.299,177.961 193,156.5C 192.333,153.167 192.333,149.833 193,146.5C 195.317,143.903 198.15,143.07 201.5,144C 211.172,148.17 220.838,152.336 230.5,156.5C 232.088,155.99 233.255,154.99 234,153.5C 239.338,144.36 245.171,135.694 251.5,127.5 Z"/></g>
<g><path style="opacity:1" fill="#e8b443" d="M 254.5,150.5 C 260.025,156.501 264.858,163.168 269,170.5C 271.28,174.059 274.447,175.559 278.5,175C 285.717,171.381 293.05,168.381 300.5,166C 297.071,179.458 293.738,192.958 290.5,206.5C 266.833,207.833 243.167,207.833 219.5,206.5C 216.433,192.994 213.433,179.494 210.5,166C 217.706,168.092 224.706,171.092 231.5,175C 234.588,175.847 237.421,175.347 240,173.5C 245.084,165.932 249.917,158.265 254.5,150.5 Z"/></g>
<g><path style="opacity:1" fill="#f98253" d="M 152.5,175.5 C 160.033,175.529 163.533,179.196 163,186.5C 157.579,193.433 152.579,193.1 148,185.5C 147.077,181.017 148.577,177.683 152.5,175.5 Z"/></g>
<g><path style="opacity:1" fill="#f98253" d="M 352.5,175.5 C 360.658,174.823 364.158,178.49 363,186.5C 357.579,193.433 352.579,193.1 348,185.5C 347.333,183.833 347.333,182.167 348,180.5C 349.707,178.963 351.207,177.296 352.5,175.5 Z"/></g>
<g><path style="opacity:1" fill="#e4deaf" d="M 148.5,255.5 C 219.501,255.333 290.501,255.5 361.5,256C 369.393,260.91 369.393,265.91 361.5,271C 290.5,271.667 219.5,271.667 148.5,271C 141.875,265.754 141.875,260.587 148.5,255.5 Z"/></g>
<g><path style="opacity:1" fill="#e4deaf" d="M 148.5,303.5 C 219.501,303.333 290.501,303.5 361.5,304C 369.393,308.91 369.393,313.91 361.5,319C 290.5,319.667 219.5,319.667 148.5,319C 141.875,313.754 141.875,308.587 148.5,303.5 Z"/></g>
<g><path style="opacity:1" fill="#e4deaf" d="M 148.5,351.5 C 219.501,351.333 290.501,351.5 361.5,352C 369.393,356.91 369.393,361.91 361.5,367C 290.5,367.667 219.5,367.667 148.5,367C 141.875,361.754 141.875,356.587 148.5,351.5 Z"/></g>
<g><path style="opacity:1" fill="#e3deae" d="M 95.5,399.5 C 202.167,399.5 308.833,399.5 415.5,399.5C 415.5,404.833 415.5,410.167 415.5,415.5C 308.833,415.5 202.167,415.5 95.5,415.5C 95.5,410.167 95.5,404.833 95.5,399.5 Z"/></g>
<g><path style="opacity:1" fill="#f77e50" d="M 156.5,432.5 C 222.332,431.335 288.332,431.168 354.5,432C 343.054,440.043 330.387,445.377 316.5,448C 276.889,456.177 237.222,456.51 197.5,449C 182.771,445.929 169.105,440.429 156.5,432.5 Z"/></g>
<g><path style="opacity:1" fill="#e9b443" d="M 453.5,479.5 C 321.5,479.5 189.5,479.5 57.5,479.5C 55.5076,463.625 56.5076,447.958 60.5,432.5C 86.1753,432.167 111.842,432.5 137.5,433.5C 143.202,443.7 151.535,450.867 162.5,455C 193.191,466.814 225.024,472.314 258,471.5C 284.416,471.307 310.249,467.474 335.5,460C 349.035,455.988 360.535,448.822 370,438.5C 371.366,436.63 372.533,434.63 373.5,432.5C 399.158,431.5 424.825,431.167 450.5,431.5C 454.493,447.302 455.493,463.302 453.5,479.5 Z"/></g>
<g><path style="opacity:1" fill="#f37d50" d="M 26.5,447.5 C 31.1667,447.5 35.8333,447.5 40.5,447.5C 40.5,458.167 40.5,468.833 40.5,479.5C 23.6876,482.172 15.521,475.172 16,458.5C 18.3566,453.645 21.8566,449.979 26.5,447.5 Z"/></g>
<g><path style="opacity:1" fill="#f47d50" d="M 470.5,447.5 C 479.399,445.738 486.899,448.071 493,454.5C 497.136,463.124 495.636,470.624 488.5,477C 482.732,479.228 476.732,480.061 470.5,479.5C 470.5,468.833 470.5,458.167 470.5,447.5 Z"/></g>
<g><path style="opacity:1" fill="#d6a843" d="M 57.5,479.5 C 189.5,479.5 321.5,479.5 453.5,479.5C 452.07,484.743 451.07,490.076 450.5,495.5C 320.5,495.5 190.5,495.5 60.5,495.5C 59.8183,490.107 58.8183,484.773 57.5,479.5 Z"/></g>
</svg>
